<svg id="svg" version="1.1" xmlns="http://www.w3.org/2000/svg" xmlns:xlink="http://www.w3.org/1999/xlink" width="400" height="400" viewBox="0, 0, 400,400"><g id="svgg"><path id="path0" d="M66.870 40.698 C 66.672 41.084,65.481 45.180,64.223 49.800 C 62.964 54.420,61.593 59.280,61.176 60.600 C 60.758 61.920,59.593 66.150,58.586 70.000 C 57.579 73.850,56.323 78.440,55.795 80.200 C 55.267 81.960,53.553 88.080,51.986 93.800 C 49.277 103.694,47.559 109.863,41.793 130.400 C 40.403 135.350,38.158 143.450,36.804 148.400 C 35.451 153.350,33.112 161.810,31.608 167.200 C 30.103 172.590,27.676 181.320,26.213 186.600 C 24.751 191.880,22.827 198.720,21.937 201.800 C 21.047 204.880,19.644 209.920,18.818 213.000 C 17.422 218.207,13.904 230.935,7.983 252.200 C 6.635 257.040,4.662 264.150,3.597 268.000 C 2.533 271.850,1.314 276.105,0.887 277.456 L 0.111 279.913 40.156 319.956 L 80.201 360.000 120.011 360.000 L 159.821 360.000 161.743 354.100 C 177.845 304.678,176.140 309.195,177.855 311.408 C 178.814 312.646,180.550 314.798,184.221 319.300 C 184.750 319.948,186.151 320.000,203.164 320.000 L 221.536 320.000 225.868 325.485 C 233.485 335.131,240.886 344.537,245.000 349.804 C 247.200 352.620,249.956 356.066,251.125 357.462 L 253.250 360.000 299.798 360.000 C 343.782 360.000,346.358 359.961,346.559 359.300 C 346.834 358.397,349.389 347.665,350.439 343.000 C 350.885 341.020,352.408 334.540,353.824 328.600 C 358.091 310.697,360.270 301.475,362.568 291.600 C 364.639 282.704,371.780 252.297,376.003 234.400 C 377.067 229.890,378.863 222.240,379.994 217.400 C 381.125 212.560,382.941 204.820,384.030 200.200 C 385.119 195.580,387.360 186.040,389.010 179.000 C 393.241 160.950,395.791 150.215,397.989 141.200 L 399.891 133.400 398.006 130.200 C 396.970 128.440,394.589 124.300,392.714 121.000 C 390.840 117.700,385.654 108.610,381.190 100.800 C 376.725 92.990,371.634 84.080,369.876 81.000 C 362.144 67.455,353.164 51.731,350.001 46.200 L 346.570 40.200 298.204 40.200 L 249.838 40.200 247.089 50.000 C 245.578 55.390,243.065 64.343,241.506 69.895 L 238.671 79.990 223.836 80.095 L 209.000 80.200 208.487 81.800 C 208.205 82.680,207.395 85.528,206.687 88.128 C 205.979 90.729,205.233 92.889,205.030 92.928 C 204.826 92.968,196.711 81.120,186.995 66.600 L 169.331 40.200 118.280 40.098 C 69.963 40.002,67.211 40.035,66.870 40.698 M159.981 50.500 C 159.971 50.995,158.378 57.790,156.442 65.600 L 152.922 79.800 110.417 79.902 C 71.284 79.996,67.933 79.952,68.163 79.352 C 68.378 78.793,70.644 70.622,75.030 54.600 C 75.632 52.400,76.299 50.375,76.511 50.100 C 76.816 49.706,85.681 49.600,118.449 49.600 L 160.000 49.600 159.981 50.500 M337.805 50.500 C 338.158 50.995,339.403 53.110,340.571 55.200 C 341.739 57.290,345.658 64.220,349.281 70.600 C 352.903 76.980,357.493 85.080,359.481 88.600 C 368.492 104.560,370.340 107.824,377.828 121.000 C 382.204 128.700,385.762 135.360,385.734 135.800 C 385.706 136.240,384.505 141.280,383.066 147.000 C 381.626 152.720,377.660 168.650,374.253 182.400 C 334.477 342.903,332.738 349.738,331.600 350.048 C 330.297 350.403,260.717 350.424,258.523 350.070 C 256.697 349.776,259.755 353.550,209.747 289.877 L 201.954 279.953 204.206 271.277 C 208.176 255.987,211.195 244.446,213.800 234.600 C 215.197 229.320,217.534 220.410,218.994 214.800 C 220.453 209.190,222.447 201.616,223.424 197.968 C 224.401 194.320,225.200 191.125,225.200 190.868 C 225.200 190.522,222.249 190.400,213.857 190.400 L 202.515 190.400 200.872 195.900 C 199.392 200.856,193.596 220.780,189.564 234.772 L 188.016 240.144 190.761 244.772 C 192.271 247.317,194.321 250.808,195.317 252.529 L 197.127 255.658 196.357 258.329 C 195.933 259.798,194.391 265.259,192.930 270.465 L 190.274 279.931 193.139 283.665 C 195.894 287.258,202.457 295.638,209.330 304.341 C 213.394 309.487,213.416 309.518,213.170 309.764 C 213.017 309.916,194.056 310.123,189.918 310.017 C 189.521 310.007,186.195 306.205,181.943 300.900 C 177.931 295.895,169.943 285.950,164.193 278.800 C 142.110 251.340,133.525 240.584,133.338 240.140 C 133.232 239.887,135.857 228.834,139.173 215.577 C 142.488 202.321,145.200 191.230,145.200 190.932 C 145.200 190.484,142.922 190.407,132.146 190.495 L 119.092 190.600 117.817 195.200 L 116.542 199.800 94.471 199.903 C 69.789 200.019,71.901 200.283,72.813 197.197 C 73.040 196.429,74.570 190.490,76.213 184.000 C 77.856 177.510,79.311 171.795,79.447 171.300 L 79.693 170.400 61.834 170.400 C 47.063 170.400,43.938 170.305,43.764 169.851 C 43.557 169.311,45.355 162.355,50.602 143.400 C 55.748 124.809,58.362 115.339,59.988 109.400 C 64.041 94.592,65.347 90.180,65.759 89.906 C 66.466 89.435,177.510 89.531,177.802 90.003 C 178.015 90.348,173.893 104.594,166.401 129.400 C 165.338 132.920,163.618 138.680,162.579 142.200 C 161.540 145.720,160.605 148.825,160.502 149.101 C 160.351 149.502,175.587 149.582,236.432 149.501 L 312.550 149.400 313.665 145.000 C 314.278 142.580,314.784 140.465,314.790 140.300 C 314.795 140.135,305.788 140.000,294.773 140.000 C 275.889 140.000,274.758 139.960,274.950 139.300 C 275.322 138.021,289.600 80.443,289.600 80.219 C 289.600 80.099,280.408 80.000,269.173 80.000 C 249.904 80.000,248.758 79.960,248.961 79.300 C 249.079 78.915,250.914 72.300,253.039 64.600 C 255.165 56.900,257.082 50.375,257.301 50.100 C 257.614 49.706,266.123 49.600,297.430 49.600 L 337.163 49.600 337.805 50.500 M277.046 90.175 C 277.167 90.492,274.507 101.787,271.133 115.275 L 265.000 139.800 233.900 139.902 C 216.795 139.959,202.800 139.902,202.800 139.777 C 202.800 139.652,203.338 137.626,203.994 135.275 C 204.651 132.924,206.732 125.150,208.619 118.000 C 212.891 101.810,216.024 90.293,216.264 89.900 C 216.647 89.272,276.804 89.545,277.046 90.175 M67.600 180.648 C 67.600 181.004,66.057 187.349,64.172 194.748 C 60.465 209.297,50.400 249.300,50.400 249.486 C 50.400 249.549,61.909 249.600,75.976 249.600 C 91.505 249.600,101.644 249.748,101.785 249.976 C 101.913 250.183,100.128 256.978,97.818 265.076 L 93.619 279.800 94.710 281.251 C 96.137 283.150,98.084 285.497,119.400 311.019 C 129.300 322.872,137.850 333.142,138.400 333.840 C 138.950 334.539,142.055 338.269,145.300 342.130 C 151.979 350.077,151.841 349.803,149.344 350.146 C 146.895 350.481,87.464 350.476,85.011 350.139 C 83.115 349.880,83.012 349.781,48.077 314.995 L 13.044 280.111 14.561 274.555 C 15.396 271.500,17.128 265.220,18.410 260.600 C 19.692 255.980,21.826 248.240,23.152 243.400 C 29.064 221.818,33.881 204.300,36.241 195.800 C 37.646 190.740,39.193 185.115,39.678 183.300 L 40.561 180.000 54.080 180.000 C 66.275 180.000,67.600 180.063,67.600 180.648 M113.093 209.926 C 113.463 210.161,112.576 213.728,109.539 224.219 C 107.313 231.909,105.405 238.605,105.299 239.100 L 105.107 240.000 83.953 240.000 C 69.920 240.000,62.800 239.863,62.800 239.594 C 62.800 238.534,70.040 210.633,70.440 210.151 C 70.953 209.534,112.133 209.316,113.093 209.926 " stroke="none" fill="#468cc5" fill-rule="evenodd"></path><path id="path1" d="M0.032 139.300 C 0.049 215.915,0.135 278.420,0.222 278.200 C 0.358 277.860,3.315 267.217,8.059 250.000 C 8.696 247.690,9.743 243.820,10.386 241.400 C 11.029 238.980,12.038 235.380,12.628 233.400 C 13.217 231.420,14.733 226.020,15.997 221.400 C 17.260 216.780,19.402 209.040,20.757 204.200 C 26.097 185.121,26.800 182.559,26.800 182.182 C 26.800 181.966,27.257 180.352,27.816 178.595 C 28.374 176.838,29.815 171.800,31.017 167.400 C 32.220 163.000,34.640 154.270,36.395 148.000 C 38.151 141.730,40.673 132.640,42.000 127.800 C 43.327 122.960,45.222 116.120,46.210 112.600 C 47.199 109.080,49.071 102.330,50.369 97.600 C 51.668 92.870,53.392 86.660,54.200 83.800 C 55.008 80.940,56.545 75.450,57.615 71.600 C 58.685 67.750,60.920 59.740,62.581 53.800 C 64.242 47.860,65.711 42.412,65.846 41.694 C 66.218 39.713,63.909 39.787,118.536 40.000 L 169.930 40.200 180.628 56.200 C 186.512 65.000,194.389 76.783,198.133 82.383 L 204.938 92.567 206.592 86.383 L 208.245 80.200 223.133 80.095 L 238.022 79.990 238.403 79.095 C 238.613 78.603,240.040 73.610,241.574 68.000 C 245.778 52.630,247.924 44.850,248.661 42.300 L 249.327 40.000 298.244 40.000 L 347.161 40.000 348.638 42.700 C 352.003 48.850,357.762 58.924,366.186 73.400 C 367.339 75.380,368.920 78.177,369.701 79.615 C 370.482 81.054,371.701 83.214,372.409 84.415 C 373.118 85.617,374.189 87.500,374.788 88.600 C 375.388 89.700,376.919 92.400,378.191 94.600 C 379.463 96.800,381.528 100.400,382.779 102.600 C 384.030 104.800,386.467 109.030,388.194 112.000 C 389.921 114.970,393.039 120.460,395.123 124.200 C 397.207 127.940,399.157 131.355,399.456 131.789 C 399.916 132.456,400.000 122.301,400.000 66.289 L 400.000 0.000 200.000 0.000 L 0.000 0.000 0.032 139.300 M75.211 56.500 C 74.285 59.855,72.554 66.098,71.364 70.373 C 70.174 74.648,69.200 78.473,69.200 78.873 C 69.200 79.571,70.851 79.600,110.610 79.600 L 152.020 79.600 152.384 78.642 C 152.584 78.115,154.203 71.860,155.981 64.742 C 157.759 57.624,159.313 51.485,159.434 51.100 C 159.642 50.436,157.500 50.400,118.274 50.400 L 76.894 50.400 75.211 56.500 M257.600 50.591 C 257.600 50.696,256.801 53.621,255.825 57.091 C 254.848 60.561,253.132 66.730,252.011 70.800 C 250.890 74.870,249.877 78.515,249.759 78.900 C 249.558 79.560,250.694 79.600,269.749 79.600 C 280.861 79.600,290.041 79.743,290.149 79.918 C 290.257 80.092,287.030 93.457,282.979 109.618 C 278.927 125.778,275.609 139.137,275.606 139.304 C 275.603 139.471,284.450 139.561,295.267 139.504 L 314.933 139.400 317.257 130.200 C 318.535 125.140,320.120 118.750,320.781 116.000 C 321.441 113.250,325.315 97.699,329.391 81.443 C 333.466 65.186,336.800 51.551,336.800 51.143 C 336.800 50.424,335.514 50.400,297.200 50.400 C 275.420 50.400,257.600 50.486,257.600 50.591 M65.633 91.312 C 65.443 91.814,64.625 94.739,63.816 97.812 C 63.007 100.885,61.985 104.570,61.545 106.000 C 60.851 108.254,58.994 115.042,54.981 130.000 C 53.754 134.574,49.141 151.307,46.214 161.800 L 44.095 169.400 62.047 169.504 L 80.000 169.608 80.000 170.535 C 80.000 171.045,78.470 177.559,76.600 185.012 C 74.730 192.464,73.200 198.795,73.200 199.081 C 73.200 199.500,77.322 199.600,94.585 199.600 L 115.969 199.600 116.409 197.900 C 116.651 196.965,117.294 194.715,117.837 192.900 L 118.826 189.600 132.225 189.600 C 142.844 189.600,145.666 189.708,145.824 190.119 C 146.016 190.620,144.783 195.956,141.739 207.800 C 140.947 210.880,140.145 214.030,139.956 214.800 C 139.767 215.570,138.350 221.291,136.806 227.513 C 135.263 233.735,134.000 239.092,134.000 239.416 C 134.000 239.931,137.388 239.993,160.645 239.903 L 187.290 239.800 188.056 237.400 C 188.477 236.080,189.973 231.040,191.382 226.200 C 197.306 205.843,198.901 200.401,199.999 196.800 C 200.636 194.710,201.354 192.232,201.596 191.294 L 202.034 189.588 213.917 189.694 C 225.515 189.797,225.799 189.819,225.756 190.600 C 225.732 191.040,224.583 195.720,223.203 201.000 C 221.823 206.280,219.832 213.930,218.779 218.000 C 213.550 238.209,206.539 265.049,204.413 273.000 C 203.530 276.300,202.806 279.225,202.804 279.500 C 202.801 279.897,210.762 279.999,241.300 279.995 L 279.800 279.991 295.780 215.895 C 304.569 180.643,311.835 151.485,311.927 151.100 C 312.085 150.435,308.269 150.400,236.047 150.400 C 163.886 150.400,160.000 150.364,160.005 149.700 C 160.012 148.649,163.110 137.870,168.998 118.400 C 172.797 105.839,177.200 90.964,177.200 90.690 C 177.200 90.530,152.176 90.400,121.590 90.400 L 65.980 90.400 65.633 91.312 M216.641 90.733 C 216.528 90.917,215.180 95.822,213.646 101.633 C 207.949 123.215,207.118 126.320,205.627 131.600 C 204.789 134.570,203.975 137.585,203.819 138.300 L 203.536 139.600 233.968 139.600 C 250.706 139.600,264.402 139.555,264.404 139.500 C 264.406 139.445,267.106 128.616,270.404 115.436 C 273.702 102.255,276.400 91.230,276.400 90.936 C 276.400 90.318,217.022 90.118,216.641 90.733 M399.600 135.820 C 399.600 136.161,398.697 140.256,397.594 144.920 C 396.491 149.584,394.770 156.910,393.770 161.200 C 392.769 165.490,391.437 171.160,390.809 173.800 C 389.428 179.612,386.275 192.997,383.790 203.600 C 382.784 207.890,381.432 213.560,380.785 216.200 C 379.630 220.908,379.148 222.983,374.410 243.600 C 373.121 249.210,371.351 256.770,370.477 260.400 C 369.602 264.030,367.507 272.850,365.821 280.000 C 364.134 287.150,361.876 296.690,360.802 301.200 C 359.728 305.710,358.558 310.750,358.203 312.400 C 357.848 314.050,356.945 317.920,356.196 321.000 C 355.448 324.080,354.379 328.580,353.821 331.000 C 353.263 333.420,351.748 339.900,350.454 345.400 C 349.159 350.900,347.885 356.436,347.621 357.702 L 347.142 360.003 299.707 359.902 L 252.272 359.800 243.139 348.200 C 238.116 341.820,232.745 334.980,231.205 333.000 C 229.664 331.020,227.400 328.140,226.174 326.600 C 224.947 325.060,223.310 322.945,222.534 321.900 L 221.125 320.000 202.601 320.000 L 184.077 320.000 182.138 317.564 C 175.763 309.554,176.651 309.691,174.589 316.400 C 173.811 318.930,172.211 323.880,171.033 327.400 C 169.856 330.920,166.953 339.695,164.582 346.900 L 160.273 360.000 119.923 360.000 L 79.574 360.000 42.087 322.500 C 21.469 301.874,3.565 284.028,2.300 282.842 L 0.000 280.684 0.000 340.342 L 0.000 400.000 200.000 400.000 L 400.000 400.000 400.000 267.600 C 400.000 194.780,399.910 135.200,399.800 135.200 C 399.690 135.200,399.600 135.479,399.600 135.820 M40.841 181.300 C 40.654 181.795,39.655 185.440,38.620 189.400 C 37.586 193.360,36.399 197.680,35.984 199.000 C 35.568 200.320,34.425 204.460,33.443 208.200 C 32.461 211.940,30.458 219.320,28.991 224.600 C 27.525 229.880,24.976 239.060,23.326 245.000 C 20.596 254.832,16.686 269.089,14.769 276.200 C 14.353 277.740,14.011 279.226,14.007 279.502 C 14.001 279.902,22.021 279.983,53.467 279.902 L 92.934 279.800 95.819 269.800 C 97.406 264.300,99.266 257.932,99.952 255.648 C 100.638 253.364,101.200 251.249,101.200 250.948 C 101.200 250.490,97.012 250.400,75.624 250.400 C 61.557 250.400,49.951 250.244,49.834 250.054 C 49.632 249.729,51.203 243.267,57.334 219.200 C 63.796 193.834,66.798 181.747,66.799 181.100 C 66.800 180.448,65.924 180.400,53.990 180.400 L 41.180 180.400 40.841 181.300 M70.593 210.900 C 70.493 211.175,69.788 214.019,69.027 217.220 C 68.266 220.421,66.734 226.441,65.622 230.597 C 64.510 234.753,63.600 238.481,63.600 238.880 C 63.600 239.575,64.516 239.603,84.085 239.504 L 104.570 239.400 104.893 238.200 C 105.071 237.540,106.220 233.490,107.447 229.200 C 108.673 224.910,110.277 219.240,111.010 216.600 C 111.743 213.960,112.465 211.485,112.615 211.100 C 112.871 210.439,111.720 210.400,91.830 210.400 C 75.350 210.400,70.735 210.509,70.593 210.900 " stroke="none" fill="#eaf4f7" fill-rule="evenodd"></path><path id="path2" d="M337.401 51.700 C 337.305 51.975,331.739 74.144,325.033 100.965 C 318.209 128.250,312.610 149.874,312.319 150.058 C 312.007 150.257,311.977 150.390,312.244 150.394 C 312.507 150.397,306.071 176.854,296.554 214.900 C 287.681 250.375,280.418 279.670,280.415 280.000 C 280.412 280.330,288.524 291.400,298.442 304.600 C 308.360 317.800,319.923 333.190,324.138 338.800 C 328.352 344.410,331.860 349.134,331.933 349.298 C 332.006 349.462,315.266 349.643,294.733 349.700 L 257.400 349.804 294.710 349.902 L 332.020 350.000 332.392 349.020 C 332.597 348.481,334.766 339.976,337.211 330.120 C 339.656 320.264,345.346 297.350,349.856 279.200 C 354.367 261.050,361.922 230.630,366.647 211.600 C 371.372 192.570,377.567 167.649,380.415 156.219 L 385.593 135.438 383.438 131.619 C 382.253 129.519,380.884 127.080,380.396 126.200 C 379.908 125.320,378.833 123.430,378.006 122.000 C 377.180 120.570,375.285 117.240,373.795 114.600 C 372.304 111.960,370.060 108.000,368.807 105.800 C 364.916 98.969,362.712 95.071,361.681 93.200 C 361.136 92.210,358.494 87.530,355.811 82.800 C 349.218 71.180,342.548 59.390,340.027 54.900 C 337.883 51.083,337.695 50.854,337.401 51.700 M150.800 261.600 C 151.721 262.700,152.564 263.600,152.674 263.600 C 152.784 263.600,152.121 262.700,151.200 261.600 C 150.279 260.500,149.436 259.600,149.326 259.600 C 149.216 259.600,149.879 260.500,150.800 261.600 M19.800 286.400 C 23.315 289.920,26.281 292.800,26.391 292.800 C 26.501 292.800,23.715 289.920,20.200 286.400 C 16.685 282.880,13.719 280.000,13.609 280.000 C 13.499 280.000,16.285 282.880,19.800 286.400 M31.400 298.000 C 34.033 300.640,36.277 302.800,36.387 302.800 C 36.497 302.800,34.433 300.640,31.800 298.000 C 29.167 295.360,26.923 293.200,26.813 293.200 C 26.703 293.200,28.767 295.360,31.400 298.000 M110.800 301.600 C 111.497 302.480,112.157 303.200,112.267 303.200 C 112.377 303.200,111.897 302.480,111.200 301.600 C 110.503 300.720,109.843 300.000,109.733 300.000 C 109.623 300.000,110.103 300.720,110.800 301.600 M38.800 305.400 C 39.995 306.610,41.063 307.600,41.173 307.600 C 41.283 307.600,40.395 306.610,39.200 305.400 C 38.005 304.190,36.937 303.200,36.827 303.200 C 36.717 303.200,37.605 304.190,38.800 305.400 M211.700 308.231 C 212.085 308.689,212.400 309.184,212.400 309.331 C 212.400 310.197,189.843 309.593,188.826 308.700 L 187.800 307.800 188.770 308.900 L 189.739 310.000 201.270 310.000 C 213.540 310.000,213.981 309.924,211.900 308.162 C 211.001 307.401,211.001 307.401,211.700 308.231 M49.200 315.800 C 49.946 316.570,50.647 317.200,50.757 317.200 C 50.867 317.200,50.346 316.570,49.600 315.800 C 48.854 315.030,48.153 314.400,48.043 314.400 C 47.933 314.400,48.454 315.030,49.200 315.800 M63.983 330.500 C 64.964 331.545,65.819 332.400,65.883 332.400 C 66.184 332.400,65.866 332.041,64.100 330.383 L 62.200 328.600 63.983 330.500 M68.000 334.600 C 68.746 335.370,69.447 336.000,69.557 336.000 C 69.667 336.000,69.146 335.370,68.400 334.600 C 67.654 333.830,66.953 333.200,66.843 333.200 C 66.733 333.200,67.254 333.830,68.000 334.600 M141.200 338.125 C 141.200 338.194,141.785 338.779,142.500 339.425 L 143.800 340.600 142.625 339.300 C 141.530 338.088,141.200 337.816,141.200 338.125 M79.393 345.500 L 83.786 350.000 117.393 349.902 L 151.000 349.805 117.404 349.700 L 83.808 349.595 79.404 345.298 L 75.000 341.000 79.393 345.500 M253.375 344.932 C 253.991 345.739,254.576 346.400,254.675 346.400 C 254.953 346.400,253.221 344.060,252.709 343.744 C 252.459 343.589,252.759 344.124,253.375 344.932 " stroke="none" fill="#9bcbfb" fill-rule="evenodd"></path><path id="path3" d="M76.377 51.061 C 76.155 51.644,76.043 52.319,76.127 52.561 C 76.211 52.802,76.412 52.413,76.573 51.696 L 76.865 50.393 118.394 50.496 C 141.236 50.553,159.840 50.465,159.738 50.300 C 159.636 50.135,140.929 50.000,118.166 50.000 L 76.780 50.000 76.377 51.061 M257.177 51.061 C 256.955 51.644,256.843 52.319,256.927 52.561 C 257.011 52.802,257.211 52.415,257.372 51.700 L 257.664 50.400 297.232 50.400 C 335.146 50.400,336.800 50.430,336.800 51.124 C 336.800 51.522,333.018 66.957,328.395 85.424 C 323.773 103.891,320.044 119.270,320.108 119.600 C 320.173 119.930,324.139 104.574,328.922 85.476 C 333.704 66.377,337.513 50.582,337.385 50.376 C 337.243 50.146,321.735 50.000,297.366 50.000 L 257.580 50.000 257.177 51.061 M158.433 54.633 C 158.175 55.659,158.039 56.572,158.131 56.664 C 158.222 56.756,158.509 55.992,158.767 54.967 C 159.025 53.941,159.161 53.028,159.069 52.936 C 158.978 52.844,158.691 53.608,158.433 54.633 M256.229 54.229 C 256.081 54.815,256.038 55.372,256.132 55.466 C 256.227 55.560,256.424 55.158,256.571 54.571 C 256.719 53.985,256.762 53.428,256.668 53.334 C 256.573 53.240,256.376 53.642,256.229 54.229 M251.829 70.229 C 251.681 70.815,251.638 71.372,251.732 71.466 C 251.827 71.560,252.024 71.158,252.171 70.571 C 252.319 69.985,252.362 69.428,252.268 69.334 C 252.173 69.240,251.976 69.642,251.829 70.229 M153.429 74.629 C 153.281 75.215,153.238 75.772,153.332 75.866 C 153.427 75.960,153.624 75.558,153.771 74.971 C 153.919 74.385,153.962 73.828,153.868 73.734 C 153.773 73.640,153.576 74.042,153.429 74.629 M68.854 78.900 L 68.800 80.000 110.557 80.000 C 155.163 80.000,152.874 80.094,152.775 78.267 C 152.761 78.010,152.587 78.205,152.388 78.700 L 152.026 79.600 110.641 79.600 L 69.256 79.600 69.082 78.700 C 68.934 77.928,68.901 77.957,68.854 78.900 M249.200 79.700 C 249.200 79.865,258.365 80.000,269.567 80.000 C 283.077 80.000,290.002 80.138,290.137 80.410 C 290.249 80.636,290.294 80.591,290.237 80.310 C 290.121 79.739,249.200 79.131,249.200 79.700 M65.681 90.479 C 65.417 90.743,65.211 91.239,65.225 91.580 C 65.241 91.960,65.391 91.852,65.612 91.300 L 65.974 90.400 121.554 90.400 C 159.112 90.400,177.199 90.533,177.337 90.810 C 177.448 91.035,177.494 90.990,177.437 90.710 C 177.289 89.983,66.407 89.753,65.681 90.479 M216.480 90.480 C 216.216 90.744,216.011 91.239,216.025 91.580 C 216.041 91.960,216.191 91.852,216.412 91.300 L 216.774 90.400 246.558 90.400 C 274.587 90.400,276.352 90.441,276.524 91.100 C 276.662 91.627,276.719 91.577,276.754 90.900 L 276.800 90.000 246.880 90.000 C 224.142 90.000,216.845 90.115,216.480 90.480 M174.436 100.036 C 174.166 100.939,174.018 101.752,174.108 101.842 C 174.198 101.932,174.493 101.266,174.764 100.364 C 175.034 99.461,175.182 98.648,175.092 98.558 C 175.002 98.468,174.707 99.134,174.436 100.036 M273.471 102.894 C 273.102 104.363,272.816 105.797,272.836 106.082 C 272.856 106.367,273.212 105.340,273.626 103.800 C 274.041 102.260,274.327 100.825,274.261 100.612 C 274.195 100.399,273.840 101.426,273.471 102.894 M173.029 104.629 C 172.881 105.215,172.838 105.772,172.932 105.866 C 173.027 105.960,173.224 105.558,173.371 104.971 C 173.519 104.385,173.562 103.828,173.468 103.734 C 173.373 103.640,173.176 104.042,173.029 104.629 M272.229 107.829 C 272.081 108.415,272.038 108.972,272.132 109.066 C 272.227 109.160,272.424 108.758,272.571 108.171 C 272.719 107.585,272.762 107.028,272.668 106.934 C 272.573 106.840,272.376 107.242,272.229 107.829 M211.233 109.433 C 210.975 110.459,210.839 111.372,210.931 111.464 C 211.022 111.556,211.309 110.792,211.567 109.767 C 211.825 108.741,211.961 107.828,211.869 107.736 C 211.778 107.644,211.491 108.408,211.233 109.433 M168.036 121.236 C 167.766 122.139,167.618 122.952,167.708 123.042 C 167.798 123.132,168.093 122.466,168.364 121.564 C 168.634 120.661,168.782 119.848,168.692 119.758 C 168.602 119.668,168.307 120.334,168.036 121.236 M268.833 121.433 C 268.575 122.459,268.439 123.372,268.531 123.464 C 268.622 123.556,268.909 122.792,269.167 121.767 C 269.425 120.741,269.561 119.828,269.469 119.736 C 269.378 119.644,269.091 120.408,268.833 121.433 M318.298 126.000 C 317.481 129.190,316.393 133.510,315.881 135.600 L 314.950 139.400 295.401 139.504 C 280.027 139.586,275.784 139.500,275.532 139.104 C 275.302 138.742,275.211 138.798,275.206 139.304 C 275.200 139.967,276.341 140.002,295.281 139.904 L 315.361 139.800 317.667 130.600 C 318.935 125.540,319.930 121.130,319.878 120.800 C 319.826 120.470,319.115 122.810,318.298 126.000 M56.229 124.229 C 56.081 124.815,56.038 125.372,56.132 125.466 C 56.227 125.560,56.424 125.158,56.571 124.571 C 56.719 123.985,56.762 123.428,56.668 123.334 C 56.573 123.240,56.376 123.642,56.229 124.229 M52.629 137.429 C 52.481 138.015,52.438 138.572,52.532 138.666 C 52.627 138.760,52.824 138.358,52.971 137.771 C 53.119 137.185,53.162 136.628,53.068 136.534 C 52.973 136.440,52.776 136.842,52.629 137.429 M264.400 139.138 C 264.400 139.497,257.089 139.585,233.800 139.505 C 216.970 139.447,203.200 139.535,203.200 139.700 C 203.200 139.865,216.959 140.000,233.776 140.000 C 263.070 140.000,265.642 139.909,264.640 138.907 C 264.508 138.775,264.400 138.879,264.400 139.138 M51.829 140.229 C 51.681 140.815,51.638 141.372,51.732 141.466 C 51.827 141.560,52.024 141.158,52.171 140.571 C 52.319 139.985,52.362 139.428,52.268 139.334 C 52.173 139.240,51.976 139.642,51.829 140.229 M235.946 150.300 C 308.191 150.397,312.084 150.438,311.927 151.101 C 311.835 151.485,304.569 180.643,295.780 215.895 L 279.800 279.991 241.300 279.995 C 204.910 280.000,202.798 279.962,202.768 279.300 C 202.747 278.835,202.666 278.778,202.525 279.130 C 202.409 279.421,202.845 280.321,203.493 281.130 C 204.939 282.931,210.438 289.935,213.598 294.000 C 214.881 295.650,218.922 300.780,222.577 305.400 C 226.232 310.020,231.333 316.484,233.911 319.765 C 236.490 323.046,240.745 328.446,243.366 331.765 C 248.899 338.770,253.531 344.657,255.792 347.558 L 257.384 349.600 294.725 349.600 C 315.263 349.600,332.007 349.465,331.933 349.300 C 331.860 349.135,328.352 344.410,324.138 338.800 C 319.923 333.190,308.360 317.800,298.442 304.600 C 288.524 291.400,280.412 280.330,280.415 280.000 C 280.418 279.670,287.678 250.384,296.550 214.920 C 309.520 163.070,312.567 150.396,312.107 150.220 C 311.792 150.099,277.394 150.045,235.667 150.099 L 159.800 150.198 235.946 150.300 M47.429 156.229 C 47.281 156.815,47.238 157.372,47.332 157.466 C 47.427 157.560,47.624 157.158,47.771 156.571 C 47.919 155.985,47.962 155.428,47.868 155.334 C 47.773 155.240,47.576 155.642,47.429 156.229 M46.229 160.629 C 46.081 161.215,46.038 161.772,46.132 161.866 C 46.227 161.960,46.424 161.558,46.571 160.971 C 46.719 160.385,46.762 159.828,46.668 159.734 C 46.573 159.640,46.376 160.042,46.229 160.629 M52.900 169.900 C 57.905 169.963,66.095 169.963,71.100 169.900 C 76.105 169.836,72.010 169.784,62.000 169.784 C 51.990 169.784,47.895 169.836,52.900 169.900 M41.062 180.300 C 40.959 180.465,46.696 180.550,53.809 180.489 L 66.742 180.379 66.916 181.289 C 67.069 182.083,67.098 182.059,67.146 181.100 L 67.200 180.000 54.224 180.000 C 47.087 180.000,41.164 180.135,41.062 180.300 M132.073 189.897 C 144.480 190.002,145.559 190.066,145.712 190.705 C 145.837 191.225,145.869 191.198,145.839 190.600 C 145.801 189.817,145.517 189.800,132.200 189.792 L 118.600 189.784 132.073 189.897 M201.845 190.227 C 201.469 191.208,201.577 191.482,202.032 190.700 C 202.613 189.702,225.421 189.613,225.730 190.608 C 225.862 191.033,225.899 191.003,225.854 190.508 C 225.759 189.472,202.240 189.197,201.845 190.227 M36.250 196.850 C 35.917 198.517,36.240 198.840,36.600 197.200 C 36.752 196.509,36.793 195.859,36.691 195.758 C 36.589 195.656,36.391 196.147,36.250 196.850 M72.846 199.103 L 72.800 200.007 94.467 199.903 C 111.641 199.821,116.155 199.694,116.237 199.290 C 116.294 199.010,116.249 198.965,116.137 199.190 C 115.728 200.014,73.292 199.728,73.076 198.900 C 72.939 198.375,72.881 198.426,72.846 199.103 M221.829 205.029 C 221.681 205.615,221.638 206.172,221.732 206.266 C 221.827 206.360,222.024 205.958,222.171 205.371 C 222.319 204.785,222.362 204.228,222.268 204.134 C 222.173 204.040,221.976 204.442,221.829 205.029 M141.450 207.650 C 141.117 209.317,141.440 209.640,141.800 208.000 C 141.952 207.309,141.993 206.659,141.891 206.558 C 141.789 206.456,141.591 206.947,141.450 207.650 M70.662 210.300 C 70.560 210.465,80.072 210.600,91.800 210.600 C 103.528 210.600,113.040 210.465,112.938 210.300 C 112.836 210.135,103.324 210.000,91.800 210.000 C 80.276 210.000,70.764 210.135,70.662 210.300 M31.829 213.029 C 31.681 213.615,31.638 214.172,31.732 214.266 C 31.827 214.360,32.024 213.958,32.171 213.371 C 32.319 212.785,32.362 212.228,32.268 212.134 C 32.173 212.040,31.976 212.442,31.829 213.029 M111.829 213.429 C 111.681 214.015,111.638 214.572,111.732 214.666 C 111.827 214.760,112.024 214.358,112.171 213.771 C 112.319 213.185,112.362 212.628,112.268 212.534 C 112.173 212.440,111.976 212.842,111.829 213.429 M31.029 215.829 C 30.881 216.415,30.838 216.972,30.932 217.066 C 31.027 217.160,31.224 216.758,31.371 216.171 C 31.519 215.585,31.562 215.028,31.468 214.934 C 31.373 214.840,31.176 215.242,31.029 215.829 M193.029 220.229 C 192.881 220.815,192.838 221.372,192.932 221.466 C 193.027 221.560,193.224 221.158,193.371 220.571 C 193.519 219.985,193.562 219.428,193.468 219.334 C 193.373 219.240,193.176 219.642,193.029 220.229 M66.833 224.633 C 66.575 225.659,66.439 226.572,66.531 226.664 C 66.622 226.756,66.909 225.992,67.167 224.967 C 67.425 223.941,67.561 223.028,67.469 222.936 C 67.378 222.844,67.091 223.608,66.833 224.633 M28.629 224.629 C 28.481 225.215,28.438 225.772,28.532 225.866 C 28.627 225.960,28.824 225.558,28.971 224.971 C 29.119 224.385,29.162 223.828,29.068 223.734 C 28.973 223.640,28.776 224.042,28.629 224.629 M216.650 224.850 C 216.509 225.553,216.469 226.202,216.559 226.292 C 216.650 226.383,216.848 225.891,217.000 225.200 C 217.152 224.509,217.193 223.859,217.091 223.758 C 216.989 223.656,216.791 224.147,216.650 224.850 M107.829 227.429 C 107.681 228.015,107.638 228.572,107.732 228.666 C 107.827 228.760,108.024 228.358,108.171 227.771 C 108.319 227.185,108.362 226.628,108.268 226.534 C 108.173 226.440,107.976 226.842,107.829 227.429 M136.250 228.450 C 135.917 230.117,136.240 230.440,136.600 228.800 C 136.752 228.109,136.793 227.459,136.691 227.358 C 136.589 227.256,136.391 227.747,136.250 228.450 M107.029 230.229 C 106.881 230.815,106.838 231.372,106.932 231.466 C 107.027 231.560,107.224 231.158,107.371 230.571 C 107.519 229.985,107.562 229.428,107.468 229.334 C 107.373 229.240,107.176 229.642,107.029 230.229 M26.629 231.829 C 26.481 232.415,26.438 232.972,26.532 233.066 C 26.627 233.160,26.824 232.758,26.971 232.171 C 27.119 231.585,27.162 231.028,27.068 230.934 C 26.973 230.840,26.776 231.242,26.629 231.829 M53.633 233.433 C 53.375 234.459,53.239 235.372,53.331 235.464 C 53.422 235.556,53.709 234.792,53.967 233.767 C 54.225 232.741,54.361 231.828,54.269 231.736 C 54.178 231.644,53.891 232.408,53.633 233.433 M188.036 237.236 C 187.766 238.139,187.618 238.952,187.708 239.042 C 187.798 239.132,188.093 238.466,188.364 237.564 C 188.634 236.661,188.782 235.848,188.692 235.758 C 188.602 235.668,188.307 236.334,188.036 237.236 M63.246 239.100 L 63.200 240.000 83.776 240.000 C 95.093 240.000,104.436 239.865,104.538 239.700 C 104.640 239.535,95.485 239.448,84.193 239.507 C 64.846 239.608,63.651 239.573,63.477 238.907 C 63.336 238.366,63.282 238.412,63.246 239.100 M133.652 239.200 C 133.629 239.530,136.509 243.400,140.050 247.800 C 143.592 252.200,149.485 259.562,153.145 264.160 C 156.805 268.759,160.790 273.730,162.000 275.208 C 163.210 276.686,165.681 279.764,167.491 282.048 C 169.301 284.331,174.974 291.420,180.097 297.800 L 189.413 309.400 200.942 309.506 C 207.980 309.571,212.418 309.467,212.335 309.238 C 212.194 308.846,207.375 302.617,200.592 294.058 C 198.387 291.276,195.021 287.010,193.111 284.577 L 189.639 280.154 191.177 274.577 C 192.024 271.510,193.545 266.157,194.558 262.682 C 196.815 254.939,196.859 255.947,194.065 251.291 C 189.041 242.917,187.600 240.427,187.600 240.119 C 187.600 239.944,175.554 239.847,160.830 239.906 C 135.541 240.005,134.051 239.972,133.877 239.306 C 133.748 238.811,133.681 238.780,133.652 239.200 M211.829 243.429 C 211.681 244.015,211.638 244.572,211.732 244.666 C 211.827 244.760,212.024 244.358,212.171 243.771 C 212.319 243.185,212.362 242.628,212.268 242.534 C 212.173 242.440,211.976 242.842,211.829 243.429 M49.763 249.690 C 49.845 250.096,55.094 250.221,75.412 250.303 C 95.238 250.383,101.027 250.517,101.272 250.903 C 101.496 251.255,101.590 251.196,101.594 250.700 C 101.600 250.041,100.109 250.000,75.833 250.000 C 58.636 250.000,49.999 249.864,49.863 249.590 C 49.752 249.365,49.706 249.410,49.763 249.690 M98.229 261.029 C 98.081 261.615,98.038 262.172,98.132 262.266 C 98.227 262.360,98.424 261.958,98.571 261.371 C 98.719 260.785,98.762 260.228,98.668 260.134 C 98.573 260.040,98.376 260.442,98.229 261.029 M206.629 263.429 C 206.481 264.015,206.438 264.572,206.532 264.666 C 206.627 264.760,206.824 264.358,206.971 263.771 C 207.119 263.185,207.162 262.628,207.068 262.534 C 206.973 262.440,206.776 262.842,206.629 263.429 M94.229 275.029 C 94.081 275.615,94.038 276.172,94.132 276.266 C 94.227 276.360,94.424 275.958,94.571 275.371 C 94.719 274.785,94.762 274.228,94.668 274.134 C 94.573 274.040,94.376 274.442,94.229 275.029 M93.429 277.829 C 93.281 278.415,93.238 278.972,93.332 279.066 C 93.427 279.160,93.624 278.758,93.771 278.171 C 93.919 277.585,93.962 277.028,93.868 276.934 C 93.773 276.840,93.576 277.242,93.429 277.829 M13.646 279.240 C 13.621 279.592,29.323 295.543,48.592 314.740 L 83.584 349.600 117.254 349.600 C 149.284 349.600,150.895 349.566,150.320 348.900 C 148.966 347.331,141.330 338.148,140.400 336.971 C 139.850 336.274,136.700 332.495,133.400 328.572 C 130.100 324.650,126.950 320.873,126.400 320.180 C 125.158 318.615,113.529 304.717,111.839 302.778 C 111.158 301.996,109.880 300.473,109.000 299.392 C 108.120 298.312,104.205 293.603,100.300 288.930 C 96.395 284.256,93.200 280.289,93.200 280.116 C 93.200 279.942,75.394 279.847,53.630 279.904 C 16.149 280.002,14.050 279.971,13.876 279.304 C 13.728 278.733,13.684 278.721,13.646 279.240 M1.800 282.400 C 2.883 283.500,3.860 284.400,3.970 284.400 C 4.080 284.400,3.283 283.500,2.200 282.400 C 1.117 281.300,0.140 280.400,0.030 280.400 C -0.080 280.400,0.717 281.300,1.800 282.400 M11.600 292.200 C 12.346 292.970,13.047 293.600,13.157 293.600 C 13.267 293.600,12.746 292.970,12.000 292.200 C 11.254 291.430,10.553 290.800,10.443 290.800 C 10.333 290.800,10.854 291.430,11.600 292.200 M27.800 308.400 C 28.659 309.280,29.452 310.000,29.562 310.000 C 29.672 310.000,29.059 309.280,28.200 308.400 C 27.341 307.520,26.548 306.800,26.438 306.800 C 26.328 306.800,26.941 307.520,27.800 308.400 M176.184 310.827 C 176.039 311.061,176.028 311.361,176.160 311.493 C 176.292 311.625,176.400 311.495,176.400 311.205 C 176.400 310.836,176.672 310.906,177.300 311.438 L 178.200 312.200 177.438 311.300 C 176.562 310.265,176.537 310.255,176.184 310.827 M37.400 318.000 C 38.483 319.100,39.460 320.000,39.570 320.000 C 39.680 320.000,38.883 319.100,37.800 318.000 C 36.717 316.900,35.740 316.000,35.630 316.000 C 35.520 316.000,36.317 316.900,37.400 318.000 M46.600 327.200 C 47.459 328.080,48.252 328.800,48.362 328.800 C 48.472 328.800,47.859 328.080,47.000 327.200 C 46.141 326.320,45.348 325.600,45.238 325.600 C 45.128 325.600,45.741 326.320,46.600 327.200 M55.200 335.725 C 55.200 335.794,55.785 336.379,56.500 337.025 L 57.800 338.200 56.625 336.900 C 55.530 335.688,55.200 335.416,55.200 335.725 M62.600 343.200 C 63.459 344.080,64.252 344.800,64.362 344.800 C 64.472 344.800,63.859 344.080,63.000 343.200 C 62.141 342.320,61.348 341.600,61.238 341.600 C 61.128 341.600,61.741 342.320,62.600 343.200 M72.800 353.400 C 73.995 354.610,75.063 355.600,75.173 355.600 C 75.283 355.600,74.395 354.610,73.200 353.400 C 72.005 352.190,70.937 351.200,70.827 351.200 C 70.717 351.200,71.605 352.190,72.800 353.400 " stroke="none" fill="#b4dbfb" fill-rule="evenodd"></path><path id="path4" d="M66.029 41.849 C 65.398 44.356,65.698 44.454,66.454 41.989 C 66.790 40.895,66.936 40.000,66.780 40.000 C 66.623 40.000,66.285 40.832,66.029 41.849 M170.637 42.100 C 171.449 43.365,172.188 44.400,172.279 44.400 C 172.547 44.400,171.100 42.082,170.090 40.894 C 169.579 40.292,169.825 40.835,170.637 42.100 M347.457 41.791 C 348.013 42.786,348.547 43.600,348.642 43.600 C 348.923 43.600,347.248 40.477,346.829 40.218 C 346.618 40.088,346.901 40.795,347.457 41.791 M248.629 43.029 C 248.481 43.615,248.438 44.172,248.532 44.266 C 248.627 44.360,248.824 43.958,248.971 43.371 C 249.119 42.785,249.162 42.228,249.068 42.134 C 248.973 42.040,248.776 42.442,248.629 43.029 M349.400 45.200 C 349.741 45.860,350.111 46.400,350.221 46.400 C 350.331 46.400,350.141 45.860,349.800 45.200 C 349.459 44.540,349.089 44.000,348.979 44.000 C 348.869 44.000,349.059 44.540,349.400 45.200 M351.400 48.800 C 351.741 49.460,352.111 50.000,352.221 50.000 C 352.331 50.000,352.141 49.460,351.800 48.800 C 351.459 48.140,351.089 47.600,350.979 47.600 C 350.869 47.600,351.059 48.140,351.400 48.800 M246.629 50.229 C 246.481 50.815,246.438 51.372,246.532 51.466 C 246.627 51.560,246.824 51.158,246.971 50.571 C 247.119 49.985,247.162 49.428,247.068 49.334 C 246.973 49.240,246.776 49.642,246.629 50.229 M76.480 50.080 C 76.216 50.344,76.013 50.839,76.028 51.180 C 76.048 51.608,76.153 51.553,76.368 51.000 C 76.677 50.209,77.146 50.198,118.440 49.997 L 160.200 49.794 118.580 49.697 C 86.633 49.623,76.848 49.712,76.480 50.080 M257.280 50.080 C 257.016 50.344,256.805 50.749,256.812 50.980 C 256.819 51.211,257.008 51.085,257.232 50.700 C 257.616 50.041,259.955 50.000,297.403 50.000 L 337.166 50.000 338.221 51.800 C 339.441 53.882,339.931 54.212,338.962 52.300 C 337.458 49.331,341.601 49.600,297.418 49.600 C 267.106 49.600,257.647 49.713,257.280 50.080 M245.829 53.029 C 245.681 53.615,245.638 54.172,245.732 54.266 C 245.827 54.360,246.024 53.958,246.171 53.371 C 246.319 52.785,246.362 52.228,246.268 52.134 C 246.173 52.040,245.976 52.442,245.829 53.029 M340.898 56.500 C 341.433 57.435,342.454 59.235,343.165 60.500 C 343.877 61.765,344.549 62.800,344.659 62.800 C 344.841 62.800,343.958 61.145,341.298 56.500 C 340.762 55.565,340.234 54.800,340.124 54.800 C 340.014 54.800,340.362 55.565,340.898 56.500 M61.633 57.833 C 61.375 58.859,61.239 59.772,61.331 59.864 C 61.422 59.956,61.709 59.192,61.967 58.167 C 62.225 57.141,62.361 56.228,62.269 56.136 C 62.178 56.044,61.891 56.808,61.633 57.833 M73.429 60.229 C 73.281 60.815,73.238 61.372,73.332 61.466 C 73.427 61.560,73.624 61.158,73.771 60.571 C 73.919 59.985,73.962 59.428,73.868 59.334 C 73.773 59.240,73.576 59.642,73.429 60.229 M182.800 60.400 C 183.270 61.060,183.744 61.600,183.854 61.600 C 183.964 61.600,183.670 61.060,183.200 60.400 C 182.730 59.740,182.256 59.200,182.146 59.200 C 182.036 59.200,182.330 59.740,182.800 60.400 M243.633 61.033 C 243.375 62.059,243.239 62.972,243.331 63.064 C 243.422 63.156,243.709 62.392,243.967 61.367 C 244.225 60.341,244.361 59.428,244.269 59.336 C 244.178 59.244,243.891 60.008,243.633 61.033 M254.229 60.229 C 254.081 60.815,254.038 61.372,254.132 61.466 C 254.227 61.560,254.424 61.158,254.571 60.571 C 254.719 59.985,254.762 59.428,254.668 59.334 C 254.573 59.240,254.376 59.642,254.229 60.229 M72.433 63.833 C 72.175 64.859,72.039 65.772,72.131 65.864 C 72.222 65.956,72.509 65.192,72.767 64.167 C 73.025 63.141,73.161 62.228,73.069 62.136 C 72.978 62.044,72.691 62.808,72.433 63.833 M253.429 63.029 C 253.281 63.615,253.238 64.172,253.332 64.266 C 253.427 64.360,253.624 63.958,253.771 63.371 C 253.919 62.785,253.962 62.228,253.868 62.134 C 253.773 62.040,253.576 62.442,253.429 63.029 M252.629 65.829 C 252.481 66.415,252.438 66.972,252.532 67.066 C 252.627 67.160,252.824 66.758,252.971 66.171 C 253.119 65.585,253.162 65.028,253.068 64.934 C 252.973 64.840,252.776 65.242,252.629 65.829 M242.229 66.229 C 242.081 66.815,242.038 67.372,242.132 67.466 C 242.227 67.560,242.424 67.158,242.571 66.571 C 242.719 65.985,242.762 65.428,242.668 65.334 C 242.573 65.240,242.376 65.642,242.229 66.229 M187.077 66.831 C 187.475 67.508,188.056 68.273,188.368 68.531 C 188.680 68.789,188.432 68.235,187.815 67.300 C 186.520 65.337,186.009 65.012,187.077 66.831 M347.200 67.600 C 347.649 68.480,348.106 69.200,348.216 69.200 C 348.326 69.200,348.049 68.480,347.600 67.600 C 347.151 66.720,346.694 66.000,346.584 66.000 C 346.474 66.000,346.751 66.720,347.200 67.600 M362.587 68.200 C 363.203 69.300,363.892 70.380,364.119 70.600 C 364.346 70.820,364.028 70.100,363.413 69.000 C 362.797 67.900,362.108 66.820,361.881 66.600 C 361.654 66.380,361.972 67.100,362.587 68.200 M349.525 71.700 C 356.367 83.843,359.688 89.600,359.851 89.600 C 359.959 89.600,359.966 89.465,359.867 89.300 C 359.768 89.135,358.168 86.300,356.312 83.000 C 349.693 71.233,348.746 69.600,348.545 69.600 C 348.433 69.600,348.874 70.545,349.525 71.700 M57.429 73.029 C 57.281 73.615,57.238 74.172,57.332 74.266 C 57.427 74.360,57.624 73.958,57.771 73.371 C 57.919 72.785,57.962 72.228,57.868 72.134 C 57.773 72.040,57.576 72.442,57.429 73.029 M365.698 73.700 C 366.233 74.635,367.254 76.435,367.965 77.700 C 368.677 78.965,369.349 80.000,369.459 80.000 C 369.641 80.000,368.758 78.345,366.098 73.700 C 365.562 72.765,365.034 72.000,364.924 72.000 C 364.814 72.000,365.162 72.765,365.698 73.700 M191.480 73.321 C 192.529 75.029,194.906 78.400,195.063 78.400 C 195.309 78.400,194.965 77.829,193.076 75.100 C 191.685 73.091,190.587 71.867,191.480 73.321 M56.433 76.633 C 56.175 77.659,56.039 78.572,56.131 78.664 C 56.222 78.756,56.509 77.992,56.767 76.967 C 57.025 75.941,57.161 75.028,57.069 74.936 C 56.978 74.844,56.691 75.608,56.433 76.633 M153.086 77.633 C 152.745 78.987,152.606 79.938,152.778 79.747 C 153.167 79.316,154.097 75.563,153.871 75.337 C 153.780 75.247,153.426 76.280,153.086 77.633 M249.429 77.429 C 249.281 78.015,249.238 78.572,249.332 78.666 C 249.427 78.760,249.624 78.358,249.771 77.771 C 249.919 77.185,249.962 76.628,249.868 76.534 C 249.773 76.440,249.576 76.842,249.429 77.429 M197.437 82.100 C 198.249 83.365,198.988 84.400,199.079 84.400 C 199.347 84.400,197.900 82.082,196.890 80.894 C 196.379 80.292,196.625 80.835,197.437 82.100 M370.600 82.400 C 370.941 83.060,371.311 83.600,371.421 83.600 C 371.531 83.600,371.341 83.060,371.000 82.400 C 370.659 81.740,370.289 81.200,370.179 81.200 C 370.069 81.200,370.259 81.740,370.600 82.400 M207.450 84.050 C 207.117 85.717,207.440 86.040,207.800 84.400 C 207.952 83.709,207.993 83.059,207.891 82.958 C 207.789 82.856,207.591 83.347,207.450 84.050 M288.650 84.050 C 288.317 85.717,288.640 86.040,289.000 84.400 C 289.152 83.709,289.193 83.059,289.091 82.958 C 288.989 82.856,288.791 83.347,288.650 84.050 M372.624 85.900 C 373.993 88.264,374.800 89.457,374.800 89.118 C 374.800 88.741,371.942 84.000,371.715 84.000 C 371.610 84.000,372.019 84.855,372.624 85.900 M206.629 87.029 C 206.481 87.615,206.438 88.172,206.532 88.266 C 206.627 88.360,206.824 87.958,206.971 87.371 C 207.119 86.785,207.162 86.228,207.068 86.134 C 206.973 86.040,206.776 86.442,206.629 87.029 M52.438 90.838 C 51.949 92.622,51.622 94.155,51.711 94.244 C 51.800 94.333,52.273 92.946,52.762 91.162 C 53.251 89.378,53.578 87.845,53.489 87.756 C 53.400 87.667,52.927 89.054,52.438 90.838 M202.277 89.630 C 202.675 90.307,203.479 91.432,204.066 92.130 L 205.131 93.400 205.515 92.400 C 205.726 91.850,206.005 90.770,206.136 90.000 C 206.282 89.143,206.099 89.453,205.664 90.800 L 204.954 93.000 203.420 90.700 C 201.786 88.249,201.076 87.584,202.277 89.630 M121.671 89.899 C 165.854 89.981,177.577 90.107,177.709 90.501 C 177.805 90.786,177.858 90.742,177.833 90.400 C 177.794 89.870,171.280 89.800,121.795 89.798 L 65.800 89.796 121.671 89.899 M216.263 89.897 C 216.160 90.064,229.762 90.153,246.490 90.095 L 276.904 89.990 276.652 91.495 C 276.514 92.323,276.312 93.450,276.204 94.000 C 276.097 94.550,276.281 94.190,276.614 93.200 C 277.879 89.436,281.105 89.814,246.725 89.697 C 230.074 89.641,216.366 89.731,216.263 89.897 M361.615 93.090 C 363.634 96.769,364.862 98.800,365.067 98.800 C 365.242 98.800,364.338 97.109,361.698 92.500 C 360.238 89.951,360.167 90.452,361.615 93.090 M177.029 92.629 C 176.881 93.215,176.838 93.772,176.932 93.866 C 177.027 93.960,177.224 93.558,177.371 92.971 C 177.519 92.385,177.562 91.828,177.468 91.734 C 177.373 91.640,177.176 92.042,177.029 92.629 M51.029 95.829 C 50.881 96.415,50.838 96.972,50.932 97.066 C 51.027 97.160,51.224 96.758,51.371 96.171 C 51.519 95.585,51.562 95.028,51.468 94.934 C 51.373 94.840,51.176 95.242,51.029 95.829 M213.633 99.033 C 213.375 100.059,213.239 100.972,213.331 101.064 C 213.422 101.156,213.709 100.392,213.967 99.367 C 214.225 98.341,214.361 97.428,214.269 97.336 C 214.178 97.244,213.891 98.008,213.633 99.033 M366.242 101.300 C 367.331 103.437,370.077 108.000,370.275 108.000 C 370.443 108.000,369.518 106.275,366.898 101.700 C 365.754 99.704,365.282 99.416,366.242 101.300 M381.400 101.200 C 381.741 101.860,382.111 102.400,382.221 102.400 C 382.331 102.400,382.141 101.860,381.800 101.200 C 381.459 100.540,381.089 100.000,380.979 100.000 C 380.869 100.000,381.059 100.540,381.400 101.200 M212.629 102.629 C 212.481 103.215,212.438 103.772,212.532 103.866 C 212.627 103.960,212.824 103.558,212.971 102.971 C 213.119 102.385,213.162 101.828,213.068 101.734 C 212.973 101.640,212.776 102.042,212.629 102.629 M173.429 104.629 C 173.281 105.215,173.238 105.772,173.332 105.866 C 173.427 105.960,173.624 105.558,173.771 104.971 C 173.919 104.385,173.962 103.828,173.868 103.734 C 173.773 103.640,173.576 104.042,173.429 104.629 M48.036 106.836 C 47.766 107.739,47.618 108.552,47.708 108.642 C 47.798 108.732,48.093 108.066,48.364 107.164 C 48.634 106.261,48.782 105.448,48.692 105.358 C 48.602 105.268,48.307 105.934,48.036 106.836 M272.071 110.098 C 271.592 112.008,271.216 113.803,271.236 114.086 C 271.256 114.368,271.701 112.980,272.226 111.000 C 272.750 109.020,273.126 107.226,273.061 107.013 C 272.995 106.800,272.550 108.188,272.071 110.098 M172.036 109.236 C 171.766 110.139,171.618 110.952,171.708 111.042 C 171.798 111.132,172.093 110.466,172.364 109.564 C 172.634 108.661,172.782 107.848,172.692 107.758 C 172.602 107.668,172.307 108.334,172.036 109.236 M211.029 108.629 C 210.881 109.215,210.838 109.772,210.932 109.866 C 211.027 109.960,211.224 109.558,211.371 108.971 C 211.519 108.385,211.562 107.828,211.468 107.734 C 211.373 107.640,211.176 108.042,211.029 108.629 M386.800 110.600 C 387.526 111.920,388.302 113.180,388.525 113.400 C 388.748 113.620,388.341 112.720,387.621 111.400 C 386.901 110.080,386.125 108.820,385.896 108.600 C 385.667 108.380,386.074 109.280,386.800 110.600 M47.029 110.229 C 46.881 110.815,46.838 111.372,46.932 111.466 C 47.027 111.560,47.224 111.158,47.371 110.571 C 47.519 109.985,47.562 109.428,47.468 109.334 C 47.373 109.240,47.176 109.642,47.029 110.229 M371.243 110.100 C 372.545 112.584,375.295 117.200,375.473 117.200 C 375.585 117.200,375.232 116.435,374.689 115.500 C 374.146 114.565,373.122 112.765,372.413 111.500 C 371.193 109.323,370.237 108.179,371.243 110.100 M46.033 113.833 C 45.775 114.859,45.639 115.772,45.731 115.864 C 45.822 115.956,46.109 115.192,46.367 114.167 C 46.625 113.141,46.761 112.228,46.669 112.136 C 46.578 112.044,46.291 112.808,46.033 113.833 M389.400 115.200 C 389.741 115.860,390.111 116.400,390.221 116.400 C 390.331 116.400,390.141 115.860,389.800 115.200 C 389.459 114.540,389.089 114.000,388.979 114.000 C 388.869 114.000,389.059 114.540,389.400 115.200 M209.029 116.229 C 208.881 116.815,208.838 117.372,208.932 117.466 C 209.027 117.560,209.224 117.158,209.371 116.571 C 209.519 115.985,209.562 115.428,209.468 115.334 C 209.373 115.240,209.176 115.642,209.029 116.229 M169.829 116.629 C 169.681 117.215,169.638 117.772,169.732 117.866 C 169.827 117.960,170.024 117.558,170.171 116.971 C 170.319 116.385,170.362 115.828,170.268 115.734 C 170.173 115.640,169.976 116.042,169.829 116.629 M57.829 117.029 C 57.681 117.615,57.638 118.172,57.732 118.266 C 57.827 118.360,58.024 117.958,58.171 117.371 C 58.319 116.785,58.362 116.228,58.268 116.134 C 58.173 116.040,57.976 116.442,57.829 117.029 M391.610 119.100 C 392.099 119.925,393.034 121.545,393.687 122.700 C 394.845 124.745,395.696 125.698,394.759 123.900 C 393.703 121.873,391.096 117.600,390.915 117.600 C 390.808 117.600,391.121 118.275,391.610 119.100 M376.441 119.300 C 377.453 121.243,380.101 125.600,380.269 125.600 C 380.367 125.600,380.371 125.465,380.277 125.300 C 377.681 120.718,376.294 118.400,376.151 118.400 C 376.052 118.400,376.183 118.805,376.441 119.300 M56.833 120.633 C 56.575 121.659,56.439 122.572,56.531 122.664 C 56.622 122.756,56.909 121.992,57.167 120.967 C 57.425 119.941,57.561 119.028,57.469 118.936 C 57.378 118.844,57.091 119.608,56.833 120.633 M168.629 120.629 C 168.481 121.215,168.438 121.772,168.532 121.866 C 168.627 121.960,168.824 121.558,168.971 120.971 C 169.119 120.385,169.162 119.828,169.068 119.734 C 168.973 119.640,168.776 120.042,168.629 120.629 M43.850 121.650 C 43.517 123.317,43.840 123.640,44.200 122.000 C 44.352 121.309,44.393 120.659,44.291 120.558 C 44.189 120.456,43.991 120.947,43.850 121.650 M269.022 122.222 C 268.872 123.025,268.828 123.762,268.926 123.860 C 269.024 123.957,269.227 123.381,269.378 122.578 C 269.528 121.775,269.572 121.038,269.474 120.940 C 269.376 120.843,269.173 121.419,269.022 122.222 M167.636 124.036 C 167.366 124.939,167.218 125.752,167.308 125.842 C 167.398 125.932,167.693 125.266,167.964 124.364 C 168.234 123.461,168.382 122.648,168.292 122.558 C 168.202 122.468,167.907 123.134,167.636 124.036 M267.238 129.438 C 266.540 132.223,266.042 134.576,266.132 134.665 C 266.221 134.754,266.865 132.548,267.563 129.763 C 268.260 126.977,268.758 124.624,268.668 124.535 C 268.579 124.446,267.935 126.652,267.238 129.438 M206.229 126.629 C 206.081 127.215,206.038 127.772,206.132 127.866 C 206.227 127.960,206.424 127.558,206.571 126.971 C 206.719 126.385,206.762 125.828,206.668 125.734 C 206.573 125.640,206.376 126.042,206.229 126.629 M380.400 126.049 C 380.400 126.174,381.660 128.505,383.200 131.228 C 384.740 133.952,386.000 136.016,386.000 135.816 C 386.000 135.615,384.981 133.639,383.736 131.425 C 381.388 127.252,380.400 125.659,380.400 126.049 M396.200 127.200 C 396.541 127.860,396.911 128.400,397.021 128.400 C 397.131 128.400,396.941 127.860,396.600 127.200 C 396.259 126.540,395.889 126.000,395.779 126.000 C 395.669 126.000,395.859 126.540,396.200 127.200 M166.436 128.036 C 166.166 128.939,166.018 129.752,166.108 129.842 C 166.198 129.932,166.493 129.266,166.764 128.364 C 167.034 127.461,167.182 126.648,167.092 126.558 C 167.002 126.468,166.707 127.134,166.436 128.036 M277.633 128.233 C 277.375 129.259,277.239 130.172,277.331 130.264 C 277.422 130.356,277.709 129.592,277.967 128.567 C 278.225 127.541,278.361 126.628,278.269 126.536 C 278.178 126.444,277.891 127.208,277.633 128.233 M41.829 129.029 C 41.681 129.615,41.638 130.172,41.732 130.266 C 41.827 130.360,42.024 129.958,42.171 129.371 C 42.319 128.785,42.362 128.228,42.268 128.134 C 42.173 128.040,41.976 128.442,41.829 129.029 M53.429 133.029 C 53.281 133.615,53.238 134.172,53.332 134.266 C 53.427 134.360,53.624 133.958,53.771 133.371 C 53.919 132.785,53.962 132.228,53.868 132.134 C 53.773 132.040,53.576 132.442,53.429 133.029 M52.038 138.038 C 51.549 139.822,51.222 141.355,51.311 141.444 C 51.400 141.533,51.873 140.146,52.362 138.362 C 52.851 136.578,53.178 135.045,53.089 134.956 C 53.000 134.867,52.527 136.254,52.038 138.038 M203.829 135.829 C 203.681 136.415,203.638 136.972,203.732 137.066 C 203.827 137.160,204.024 136.758,204.171 136.171 C 204.319 135.585,204.362 135.028,204.268 134.934 C 204.173 134.840,203.976 135.242,203.829 135.829 M203.029 138.629 C 202.881 139.215,202.838 139.772,202.932 139.866 C 203.027 139.960,203.224 139.558,203.371 138.971 C 203.519 138.385,203.562 137.828,203.468 137.734 C 203.373 137.640,203.176 138.042,203.029 138.629 M397.850 141.250 C 397.517 142.917,397.840 143.240,398.200 141.600 C 398.352 140.909,398.393 140.259,398.291 140.158 C 398.189 140.056,397.991 140.547,397.850 141.250 M162.036 142.836 C 161.766 143.739,161.618 144.552,161.708 144.642 C 161.798 144.732,162.093 144.066,162.364 143.164 C 162.634 142.261,162.782 141.448,162.692 141.358 C 162.602 141.268,162.307 141.934,162.036 142.836 M383.271 144.498 C 382.792 146.408,382.416 148.203,382.436 148.486 C 382.456 148.768,382.901 147.380,383.426 145.400 C 383.950 143.420,384.326 141.626,384.261 141.413 C 384.195 141.200,383.750 142.588,383.271 144.498 M50.229 144.629 C 50.081 145.215,50.038 145.772,50.132 145.866 C 50.227 145.960,50.424 145.558,50.571 144.971 C 50.719 144.385,50.762 143.828,50.668 143.734 C 50.573 143.640,50.376 144.042,50.229 144.629 M313.162 146.900 L 312.584 149.400 236.292 149.400 C 194.331 149.400,160.000 149.535,160.000 149.700 C 160.000 149.865,194.373 150.000,236.385 150.000 L 312.769 150.000 313.179 148.478 C 313.799 146.177,314.121 144.400,313.920 144.400 C 313.820 144.400,313.479 145.525,313.162 146.900 M160.629 147.429 C 160.481 148.015,160.438 148.572,160.532 148.666 C 160.627 148.760,160.824 148.358,160.971 147.771 C 161.119 147.185,161.162 146.628,161.068 146.534 C 160.973 146.440,160.776 146.842,160.629 147.429 M381.600 151.200 C 381.330 152.324,381.189 153.323,381.287 153.420 C 381.384 153.517,381.677 152.670,381.938 151.538 C 382.200 150.406,382.341 149.407,382.252 149.319 C 382.163 149.230,381.870 150.076,381.600 151.200 M47.850 153.250 C 47.475 154.598,47.240 155.774,47.328 155.862 C 47.416 155.950,47.797 154.921,48.175 153.575 C 48.553 152.229,48.787 151.054,48.697 150.963 C 48.606 150.873,48.225 151.902,47.850 153.250 M393.850 158.450 C 393.517 160.117,393.840 160.440,394.200 158.800 C 394.352 158.109,394.393 157.459,394.291 157.358 C 394.189 157.256,393.991 157.747,393.850 158.450 M46.229 159.029 C 46.081 159.615,46.038 160.172,46.132 160.266 C 46.227 160.360,46.424 159.958,46.571 159.371 C 46.719 158.785,46.762 158.228,46.668 158.134 C 46.573 158.040,46.376 158.442,46.229 159.029 M32.637 162.170 C 32.287 163.397,31.713 165.403,31.363 166.630 C 31.013 167.856,30.801 168.935,30.893 169.027 C 30.985 169.118,31.626 167.179,32.317 164.717 C 33.009 162.255,33.507 160.173,33.424 160.091 C 33.342 160.008,32.987 160.944,32.637 162.170 M393.000 161.600 C 392.848 162.291,392.807 162.941,392.909 163.042 C 393.011 163.144,393.209 162.653,393.350 161.950 C 393.683 160.283,393.360 159.960,393.000 161.600 M377.053 169.653 C 376.252 172.995,375.669 175.803,375.758 175.892 C 375.847 175.981,376.577 173.320,377.379 169.979 C 378.181 166.638,378.764 163.830,378.673 163.740 C 378.583 163.649,377.854 166.310,377.053 169.653 M43.862 170.100 C 43.964 170.265,52.032 170.400,61.790 170.400 C 75.610 170.400,79.578 170.511,79.735 170.900 C 79.857 171.202,79.949 171.126,79.968 170.708 C 79.998 170.063,78.762 170.009,61.838 169.908 C 51.849 169.849,43.760 169.935,43.862 170.100 M78.629 174.229 C 78.481 174.815,78.438 175.372,78.532 175.466 C 78.627 175.560,78.824 175.158,78.971 174.571 C 79.119 173.985,79.162 173.428,79.068 173.334 C 78.973 173.240,78.776 173.642,78.629 174.229 M27.219 181.619 C 26.736 183.409,26.415 184.948,26.505 185.039 C 26.596 185.129,27.063 183.736,27.543 181.943 C 28.023 180.150,28.344 178.611,28.256 178.523 C 28.169 178.436,27.702 179.829,27.219 181.619 M370.800 194.800 C 368.542 203.836,366.771 211.304,366.864 211.397 C 366.957 211.490,368.875 204.168,371.126 195.126 C 373.377 186.084,375.149 178.615,375.062 178.529 C 374.976 178.442,373.058 185.764,370.800 194.800 M388.650 180.450 C 388.317 182.117,388.640 182.440,389.000 180.800 C 389.152 180.109,389.193 179.459,389.091 179.358 C 388.989 179.256,388.791 179.747,388.650 180.450 M387.432 185.432 C 387.040 187.093,386.795 188.528,386.888 188.621 C 386.980 188.714,387.377 187.430,387.768 185.768 C 388.160 184.107,388.405 182.672,388.312 182.579 C 388.220 182.486,387.823 183.770,387.432 185.432 M25.636 187.236 C 25.366 188.139,25.218 188.952,25.308 189.042 C 25.398 189.132,25.693 188.466,25.964 187.564 C 26.234 186.661,26.382 185.848,26.292 185.758 C 26.202 185.668,25.907 186.334,25.636 187.236 M119.062 190.300 C 118.959 190.465,124.785 190.550,132.007 190.490 C 144.303 190.386,145.149 190.424,145.322 191.090 C 145.465 191.637,145.518 191.594,145.554 190.900 L 145.600 190.000 132.424 190.000 C 125.177 190.000,119.164 190.135,119.062 190.300 M201.977 191.061 C 201.755 191.644,201.643 192.319,201.727 192.561 C 201.811 192.802,202.011 192.415,202.172 191.700 L 202.464 190.400 213.798 190.400 C 222.492 190.400,225.180 190.517,225.335 190.900 C 225.456 191.199,225.550 191.118,225.568 190.700 C 225.598 190.049,224.793 190.000,213.990 190.000 L 202.380 190.000 201.977 191.061 M24.229 192.229 C 24.081 192.815,24.038 193.372,24.132 193.466 C 24.227 193.560,24.424 193.158,24.571 192.571 C 24.719 191.985,24.762 191.428,24.668 191.334 C 24.573 191.240,24.376 191.642,24.229 192.229 M72.851 196.962 C 72.603 197.948,72.415 199.080,72.433 199.477 C 72.452 199.875,72.724 199.137,73.038 197.838 C 73.352 196.539,73.541 195.407,73.456 195.323 C 73.372 195.238,73.100 195.976,72.851 196.962 M22.629 198.229 C 22.481 198.815,22.438 199.372,22.532 199.466 C 22.627 199.560,22.824 199.158,22.971 198.571 C 23.119 197.985,23.162 197.428,23.068 197.334 C 22.973 197.240,22.776 197.642,22.629 198.229 M142.836 200.636 C 142.358 202.542,142.041 204.174,142.131 204.264 C 142.221 204.354,142.686 202.869,143.164 200.964 C 143.642 199.058,143.959 197.426,143.869 197.336 C 143.779 197.246,143.314 198.731,142.836 200.636 M222.833 199.833 C 222.575 200.859,222.439 201.772,222.531 201.864 C 222.622 201.956,222.909 201.192,223.167 200.167 C 223.425 199.141,223.561 198.228,223.469 198.136 C 223.378 198.044,223.091 198.808,222.833 199.833 M62.433 200.233 C 62.175 201.259,62.039 202.172,62.131 202.264 C 62.222 202.356,62.509 201.592,62.767 200.567 C 63.025 199.541,63.161 198.628,63.069 198.536 C 62.978 198.444,62.691 199.208,62.433 200.233 M383.467 202.467 C 383.091 204.034,382.855 205.389,382.944 205.477 C 383.032 205.565,383.417 204.361,383.800 202.800 C 384.183 201.239,384.418 199.885,384.323 199.790 C 384.228 199.695,383.843 200.899,383.467 202.467 M21.829 201.029 C 21.681 201.615,21.638 202.172,21.732 202.266 C 21.827 202.360,22.024 201.958,22.171 201.371 C 22.319 200.785,22.362 200.228,22.268 200.134 C 22.173 200.040,21.976 200.442,21.829 201.029 M34.629 201.429 C 34.481 202.015,34.438 202.572,34.532 202.666 C 34.627 202.760,34.824 202.358,34.971 201.771 C 35.119 201.185,35.162 200.628,35.068 200.534 C 34.973 200.440,34.776 200.842,34.629 201.429 M382.222 207.422 C 382.072 208.225,382.028 208.962,382.126 209.060 C 382.224 209.157,382.427 208.581,382.578 207.778 C 382.728 206.975,382.772 206.238,382.674 206.140 C 382.576 206.043,382.373 206.619,382.222 207.422 M197.029 207.829 C 196.881 208.415,196.838 208.972,196.932 209.066 C 197.027 209.160,197.224 208.758,197.371 208.171 C 197.519 207.585,197.562 207.028,197.468 206.934 C 197.373 206.840,197.176 207.242,197.029 207.829 M32.629 208.629 C 32.481 209.215,32.438 209.772,32.532 209.866 C 32.627 209.960,32.824 209.558,32.971 208.971 C 33.119 208.385,33.162 207.828,33.068 207.734 C 32.973 207.640,32.776 208.042,32.629 208.629 M70.480 210.080 C 70.216 210.344,70.005 210.749,70.012 210.980 C 70.019 211.211,70.208 211.085,70.432 210.700 C 70.951 209.810,112.237 209.597,113.120 210.480 C 113.441 210.801,113.600 210.815,113.600 210.523 C 113.600 209.459,71.533 209.027,70.480 210.080 M196.229 210.629 C 196.081 211.215,196.038 211.772,196.132 211.866 C 196.227 211.960,196.424 211.558,196.571 210.971 C 196.719 210.385,196.762 209.828,196.668 209.734 C 196.573 209.640,196.376 210.042,196.229 210.629 M31.829 211.429 C 31.681 212.015,31.638 212.572,31.732 212.666 C 31.827 212.760,32.024 212.358,32.171 211.771 C 32.319 211.185,32.362 210.628,32.268 210.534 C 32.173 210.440,31.976 210.842,31.829 211.429 M112.629 212.229 C 112.481 212.815,112.438 213.372,112.532 213.466 C 112.627 213.560,112.824 213.158,112.971 212.571 C 113.119 211.985,113.162 211.428,113.068 211.334 C 112.973 211.240,112.776 211.642,112.629 212.229 M111.829 215.029 C 111.681 215.615,111.638 216.172,111.732 216.266 C 111.827 216.360,112.024 215.958,112.171 215.371 C 112.319 214.785,112.362 214.228,112.268 214.134 C 112.173 214.040,111.976 214.442,111.829 215.029 M17.425 216.825 C 17.047 218.171,16.813 219.346,16.903 219.437 C 16.994 219.527,17.375 218.498,17.750 217.150 C 18.125 215.802,18.360 214.626,18.272 214.538 C 18.184 214.450,17.803 215.479,17.425 216.825 M30.629 215.829 C 30.481 216.415,30.438 216.972,30.532 217.066 C 30.627 217.160,30.824 216.758,30.971 216.171 C 31.119 215.585,31.162 215.028,31.068 214.934 C 30.973 214.840,30.776 215.242,30.629 215.829 M67.638 219.838 C 66.940 222.623,66.442 224.976,66.532 225.065 C 66.621 225.154,67.265 222.948,67.963 220.163 C 68.660 217.377,69.158 215.024,69.068 214.935 C 68.979 214.846,68.335 217.052,67.638 219.838 M194.229 217.429 C 194.081 218.015,194.038 218.572,194.132 218.666 C 194.227 218.760,194.424 218.358,194.571 217.771 C 194.719 217.185,194.762 216.628,194.668 216.534 C 194.573 216.440,194.376 216.842,194.229 217.429 M218.033 218.233 C 217.775 219.259,217.639 220.172,217.731 220.264 C 217.822 220.356,218.109 219.592,218.367 218.567 C 218.625 217.541,218.761 216.628,218.669 216.536 C 218.578 216.444,218.291 217.208,218.033 218.233 M111.029 217.829 C 110.881 218.415,110.838 218.972,110.932 219.066 C 111.027 219.160,111.224 218.758,111.371 218.171 C 111.519 217.585,111.562 217.028,111.468 216.934 C 111.373 216.840,111.176 217.242,111.029 217.829 M29.429 220.229 C 29.281 220.815,29.238 221.372,29.332 221.466 C 29.427 221.560,29.624 221.158,29.771 220.571 C 29.919 219.985,29.962 219.428,29.868 219.334 C 29.773 219.240,29.576 219.642,29.429 220.229 M193.429 220.229 C 193.281 220.815,193.238 221.372,193.332 221.466 C 193.427 221.560,193.624 221.158,193.771 220.571 C 193.919 219.985,193.962 219.428,193.868 219.334 C 193.773 219.240,193.576 219.642,193.429 220.229 M137.633 221.433 C 137.375 222.459,137.239 223.372,137.331 223.464 C 137.422 223.556,137.709 222.792,137.967 221.767 C 138.225 220.741,138.361 219.828,138.269 219.736 C 138.178 219.644,137.891 220.408,137.633 221.433 M16.229 221.029 C 16.081 221.615,16.038 222.172,16.132 222.266 C 16.227 222.360,16.424 221.958,16.571 221.371 C 16.719 220.785,16.762 220.228,16.668 220.134 C 16.573 220.040,16.376 220.442,16.229 221.029 M192.629 223.029 C 192.481 223.615,192.438 224.172,192.532 224.266 C 192.627 224.360,192.824 223.958,192.971 223.371 C 193.119 222.785,193.162 222.228,193.068 222.134 C 192.973 222.040,192.776 222.442,192.629 223.029 M28.229 224.629 C 28.081 225.215,28.038 225.772,28.132 225.866 C 28.227 225.960,28.424 225.558,28.571 224.971 C 28.719 224.385,28.762 223.828,28.668 223.734 C 28.573 223.640,28.376 224.042,28.229 224.629 M363.050 226.050 C 362.909 226.753,362.869 227.402,362.959 227.492 C 363.050 227.583,363.248 227.091,363.400 226.400 C 363.552 225.709,363.593 225.059,363.491 224.958 C 363.389 224.856,363.191 225.347,363.050 226.050 M377.467 228.067 C 377.091 229.634,376.855 230.989,376.944 231.077 C 377.032 231.165,377.417 229.961,377.800 228.400 C 378.183 226.839,378.418 225.485,378.323 225.390 C 378.228 225.295,377.843 226.499,377.467 228.067 M191.429 227.029 C 191.281 227.615,191.238 228.172,191.332 228.266 C 191.427 228.360,191.624 227.958,191.771 227.371 C 191.919 226.785,191.962 226.228,191.868 226.134 C 191.773 226.040,191.576 226.442,191.429 227.029 M27.429 227.429 C 27.281 228.015,27.238 228.572,27.332 228.666 C 27.427 228.760,27.624 228.358,27.771 227.771 C 27.919 227.185,27.962 226.628,27.868 226.534 C 27.773 226.440,27.576 226.842,27.429 227.429 M362.200 229.200 C 362.048 229.891,362.007 230.541,362.109 230.642 C 362.211 230.744,362.409 230.253,362.550 229.550 C 362.691 228.847,362.731 228.198,362.641 228.108 C 362.550 228.017,362.352 228.509,362.200 229.200 M26.229 231.829 C 26.081 232.415,26.038 232.972,26.132 233.066 C 26.227 233.160,26.424 232.758,26.571 232.171 C 26.719 231.585,26.762 231.028,26.668 230.934 C 26.573 230.840,26.376 231.242,26.229 231.829 M107.029 231.829 C 106.881 232.415,106.838 232.972,106.932 233.066 C 107.027 233.160,107.224 232.758,107.371 232.171 C 107.519 231.585,107.562 231.028,107.468 230.934 C 107.373 230.840,107.176 231.242,107.029 231.829 M13.029 232.629 C 12.881 233.215,12.838 233.772,12.932 233.866 C 13.027 233.960,13.224 233.558,13.371 232.971 C 13.519 232.385,13.562 231.828,13.468 231.734 C 13.373 231.640,13.176 232.042,13.029 232.629 M213.829 234.229 C 213.681 234.815,213.638 235.372,213.732 235.466 C 213.827 235.560,214.024 235.158,214.171 234.571 C 214.319 233.985,214.362 233.428,214.268 233.334 C 214.173 233.240,213.976 233.642,213.829 234.229 M11.881 236.738 C 11.507 238.085,11.214 239.416,11.231 239.694 C 11.247 239.972,11.607 239.030,12.029 237.600 C 12.451 236.170,12.744 234.840,12.680 234.644 C 12.615 234.448,12.256 235.390,11.881 236.738 M52.637 239.037 C 52.049 241.383,51.642 243.375,51.731 243.465 C 51.821 243.554,52.375 241.709,52.963 239.363 C 53.551 237.017,53.958 235.025,53.869 234.935 C 53.779 234.846,53.225 236.691,52.637 239.037 M105.829 235.829 C 105.681 236.415,105.638 236.972,105.732 237.066 C 105.827 237.160,106.024 236.758,106.171 236.171 C 106.319 235.585,106.362 235.028,106.268 234.934 C 106.173 234.840,105.976 235.242,105.829 235.829 M133.829 236.629 C 133.681 237.215,133.638 237.772,133.732 237.866 C 133.827 237.960,134.024 237.558,134.171 236.971 C 134.319 236.385,134.362 235.828,134.268 235.734 C 134.173 235.640,133.976 236.042,133.829 236.629 M133.254 239.130 C 133.203 240.008,136.186 244.374,137.310 245.067 C 137.579 245.233,136.873 244.203,135.740 242.778 C 134.607 241.353,133.597 239.740,133.495 239.194 C 133.313 238.223,133.308 238.222,133.254 239.130 M187.860 239.293 C 187.731 239.784,187.755 240.315,187.913 240.472 C 188.071 240.629,188.238 240.227,188.284 239.579 C 188.383 238.180,188.186 238.047,187.860 239.293 M212.033 241.033 C 211.775 242.059,211.639 242.972,211.731 243.064 C 211.822 243.156,212.109 242.392,212.367 241.367 C 212.625 240.341,212.761 239.428,212.669 239.336 C 212.578 239.244,212.291 240.008,212.033 241.033 M10.629 241.429 C 10.481 242.015,10.438 242.572,10.532 242.666 C 10.627 242.760,10.824 242.358,10.971 241.771 C 11.119 241.185,11.162 240.628,11.068 240.534 C 10.973 240.440,10.776 240.842,10.629 241.429 M373.422 245.222 C 373.062 246.805,372.843 248.177,372.936 248.269 C 373.029 248.362,373.398 247.141,373.756 245.556 C 374.114 243.970,374.332 242.599,374.242 242.508 C 374.151 242.418,373.782 243.639,373.422 245.222 M138.955 247.319 C 139.803 248.353,140.580 249.200,140.682 249.200 C 140.955 249.200,138.421 246.060,137.877 245.724 C 137.622 245.566,138.107 246.284,138.955 247.319 M357.034 250.234 C 356.416 252.770,355.985 254.918,356.076 255.009 C 356.167 255.100,356.747 253.101,357.366 250.566 C 357.984 248.030,358.415 245.882,358.324 245.791 C 358.233 245.700,357.653 247.699,357.034 250.234 M192.241 247.800 C 192.841 248.900,193.502 249.980,193.710 250.200 C 194.303 250.827,192.541 247.495,191.806 246.600 C 191.445 246.160,191.641 246.700,192.241 247.800 M21.829 247.829 C 21.681 248.415,21.638 248.972,21.732 249.066 C 21.827 249.160,22.024 248.758,22.171 248.171 C 22.319 247.585,22.362 247.028,22.268 246.934 C 22.173 246.840,21.976 247.242,21.829 247.829 M372.029 251.029 C 371.754 252.257,371.606 253.339,371.700 253.433 C 371.794 253.528,372.097 252.600,372.371 251.371 C 372.646 250.143,372.794 249.061,372.700 248.967 C 372.606 248.872,372.303 249.800,372.029 251.029 M50.000 249.700 C 50.000 249.865,61.597 250.000,75.771 250.000 C 96.031 250.000,101.577 250.107,101.709 250.500 C 101.806 250.788,101.858 250.745,101.833 250.400 C 101.785 249.749,50.000 249.049,50.000 249.700 M142.247 251.443 C 153.844 266.029,165.431 280.271,164.330 278.589 C 163.373 277.124,141.561 250.023,141.120 249.751 C 140.884 249.605,141.391 250.366,142.247 251.443 M370.862 256.062 C 370.600 257.194,370.459 258.193,370.548 258.281 C 370.637 258.370,370.930 257.524,371.200 256.400 C 371.470 255.276,371.611 254.277,371.513 254.180 C 371.416 254.083,371.123 254.930,370.862 256.062 M6.629 255.829 C 6.481 256.415,6.438 256.972,6.532 257.066 C 6.627 257.160,6.824 256.758,6.971 256.171 C 7.119 255.585,7.162 255.028,7.068 254.934 C 6.973 254.840,6.776 255.242,6.629 255.829 M207.236 259.436 C 206.758 261.342,206.441 262.974,206.531 263.064 C 206.621 263.154,207.086 261.669,207.564 259.764 C 208.042 257.858,208.359 256.226,208.269 256.136 C 208.179 256.046,207.714 257.531,207.236 259.436 M5.636 259.236 C 5.366 260.139,5.218 260.952,5.308 261.042 C 5.398 261.132,5.693 260.466,5.964 259.564 C 6.234 258.661,6.382 257.848,6.292 257.758 C 6.202 257.668,5.907 258.334,5.636 259.236 M18.229 261.029 C 18.081 261.615,18.038 262.172,18.132 262.266 C 18.227 262.360,18.424 261.958,18.571 261.371 C 18.719 260.785,18.762 260.228,18.668 260.134 C 18.573 260.040,18.376 260.442,18.229 261.029 M352.471 268.507 C 351.332 273.061,350.416 277.015,350.436 277.293 C 350.456 277.572,351.441 274.020,352.625 269.400 C 353.808 264.780,354.724 260.826,354.659 260.614 C 354.595 260.402,353.611 263.954,352.471 268.507 M97.829 263.829 C 97.681 264.415,97.638 264.972,97.732 265.066 C 97.827 265.160,98.024 264.758,98.171 264.171 C 98.319 263.585,98.362 263.028,98.268 262.934 C 98.173 262.840,97.976 263.242,97.829 263.829 M4.229 264.229 C 4.081 264.815,4.038 265.372,4.132 265.466 C 4.227 265.560,4.424 265.158,4.571 264.571 C 4.719 263.985,4.762 263.428,4.668 263.334 C 4.573 263.240,4.376 263.642,4.229 264.229 M367.484 270.455 C 366.870 273.120,366.439 275.372,366.526 275.459 C 366.747 275.680,368.893 266.478,368.732 265.999 C 368.659 265.784,368.098 267.789,367.484 270.455 M193.029 268.629 C 192.881 269.215,192.838 269.772,192.932 269.866 C 193.027 269.960,193.224 269.558,193.371 268.971 C 193.519 268.385,193.562 267.828,193.468 267.734 C 193.373 267.640,193.176 268.042,193.029 268.629 M96.229 269.429 C 96.081 270.015,96.038 270.572,96.132 270.666 C 96.227 270.760,96.424 270.358,96.571 269.771 C 96.719 269.185,96.762 268.628,96.668 268.534 C 96.573 268.440,96.376 268.842,96.229 269.429 M2.629 270.229 C 2.481 270.815,2.438 271.372,2.532 271.466 C 2.627 271.560,2.824 271.158,2.971 270.571 C 3.119 269.985,3.162 269.428,3.068 269.334 C 2.973 269.240,2.776 269.642,2.629 270.229 M191.829 273.029 C 191.681 273.615,191.638 274.172,191.732 274.266 C 191.827 274.360,192.024 273.958,192.171 273.371 C 192.319 272.785,192.362 272.228,192.268 272.134 C 192.173 272.040,191.976 272.442,191.829 273.029 M14.629 274.229 C 14.481 274.815,14.438 275.372,14.532 275.466 C 14.627 275.560,14.824 275.158,14.971 274.571 C 15.119 273.985,15.162 273.428,15.068 273.334 C 14.973 273.240,14.776 273.642,14.629 274.229 M191.029 275.829 C 190.881 276.415,190.838 276.972,190.932 277.066 C 191.027 277.160,191.224 276.758,191.371 276.171 C 191.519 275.585,191.562 275.028,191.468 274.934 C 191.373 274.840,191.176 275.242,191.029 275.829 M13.829 277.029 C 13.681 277.615,13.638 278.172,13.732 278.266 C 13.827 278.360,14.024 277.958,14.171 277.371 C 14.319 276.785,14.362 276.228,14.268 276.134 C 14.173 276.040,13.976 276.442,13.829 277.029 M190.195 278.824 C 189.940 279.984,193.298 285.272,194.930 286.280 C 195.171 286.429,194.234 285.085,192.848 283.294 C 190.635 280.434,190.361 279.888,190.596 278.818 C 190.743 278.148,190.774 277.600,190.664 277.600 C 190.554 277.600,190.343 278.151,190.195 278.824 M202.190 278.847 C 201.969 279.851,202.097 280.260,202.843 280.947 L 203.770 281.800 203.047 280.927 C 202.522 280.293,202.398 279.718,202.594 278.827 C 202.742 278.152,202.774 277.600,202.664 277.600 C 202.554 277.600,202.340 278.161,202.190 278.847 M348.015 286.415 C 346.878 291.071,346.027 294.961,346.126 295.059 C 346.225 295.158,347.227 291.421,348.355 286.755 C 349.482 282.089,350.332 278.199,350.244 278.111 C 350.156 278.022,349.153 281.759,348.015 286.415 M13.254 279.402 C 13.206 280.121,42.896 310.400,43.650 310.400 C 43.786 310.400,37.089 303.621,28.768 295.337 C 20.447 287.052,13.565 279.897,13.474 279.437 C 13.317 278.640,13.306 278.638,13.254 279.402 M93.200 279.765 C 93.200 280.103,100.390 288.800,100.670 288.800 C 100.770 288.800,99.715 287.429,98.326 285.754 C 96.937 284.078,95.311 282.075,94.713 281.301 C 93.373 279.565,93.200 279.389,93.200 279.765 M167.220 282.500 C 168.588 284.205,169.789 285.600,169.887 285.600 C 170.125 285.600,168.047 283.005,166.204 281.000 C 165.395 280.120,165.852 280.795,167.220 282.500 M39.800 320.000 C 61.799 342.000,79.888 360.000,79.998 360.000 C 80.108 360.000,62.199 342.000,40.200 320.000 C 18.201 298.000,0.112 280.000,0.002 280.000 C -0.108 280.000,17.801 298.000,39.800 320.000 M208.191 287.947 C 209.272 289.324,210.341 290.564,210.566 290.703 C 210.791 290.842,210.090 289.829,209.009 288.453 C 207.928 287.076,206.859 285.836,206.634 285.697 C 206.409 285.558,207.110 286.571,208.191 287.947 M172.162 288.700 C 173.442 290.295,174.572 291.600,174.672 291.600 C 174.938 291.600,171.191 286.887,170.458 286.300 C 170.114 286.025,170.881 287.105,172.162 288.700 M196.991 289.147 C 198.072 290.524,199.141 291.764,199.366 291.903 C 199.591 292.042,198.890 291.029,197.809 289.653 C 196.728 288.276,195.659 287.036,195.434 286.897 C 195.209 286.758,195.910 287.771,196.991 289.147 M102.291 291.041 C 103.217 292.163,104.294 293.333,104.684 293.641 C 105.074 293.948,104.635 293.282,103.709 292.159 C 102.783 291.037,101.706 289.867,101.316 289.559 C 100.926 289.252,101.365 289.918,102.291 291.041 M212.591 293.547 C 213.672 294.924,214.741 296.164,214.966 296.303 C 215.191 296.442,214.490 295.429,213.409 294.053 C 212.328 292.676,211.259 291.436,211.034 291.297 C 210.809 291.158,211.510 292.171,212.591 293.547 M177.200 295.000 C 178.548 296.650,179.741 298.000,179.851 298.000 C 179.961 298.000,178.948 296.650,177.600 295.000 C 176.252 293.350,175.059 292.000,174.949 292.000 C 174.839 292.000,175.852 293.350,177.200 295.000 M202.024 295.567 C 203.429 297.380,204.756 298.973,204.973 299.107 C 205.190 299.241,204.223 297.871,202.823 296.061 C 201.424 294.252,200.096 292.660,199.874 292.522 C 199.651 292.385,200.619 293.755,202.024 295.567 M107.403 297.100 C 108.648 298.585,110.326 300.607,111.133 301.594 C 115.420 306.836,120.887 313.200,121.103 313.200 C 121.239 313.200,120.897 312.705,120.344 312.100 C 119.790 311.495,116.239 307.265,112.451 302.700 C 108.663 298.135,105.468 294.400,105.352 294.400 C 105.235 294.400,106.158 295.615,107.403 297.100 M216.396 298.394 C 217.090 299.271,217.867 300.118,218.123 300.276 C 218.378 300.434,217.893 299.716,217.045 298.681 C 216.197 297.647,215.420 296.800,215.318 296.800 C 215.216 296.800,215.701 297.518,216.396 298.394 M206.971 301.922 C 208.042 303.285,209.196 304.625,209.535 304.900 C 209.874 305.175,209.202 304.186,208.041 302.702 C 206.880 301.218,205.726 299.878,205.477 299.724 C 205.228 299.570,205.901 300.559,206.971 301.922 M182.555 301.719 C 183.403 302.753,184.180 303.600,184.282 303.600 C 184.555 303.600,182.021 300.460,181.477 300.124 C 181.222 299.966,181.707 300.684,182.555 301.719 M343.067 306.467 C 342.691 308.034,342.455 309.389,342.544 309.477 C 342.632 309.565,343.017 308.361,343.400 306.800 C 343.783 305.239,344.018 303.885,343.923 303.790 C 343.828 303.695,343.443 304.899,343.067 306.467 M222.400 306.000 C 223.097 306.880,223.757 307.600,223.867 307.600 C 223.977 307.600,223.497 306.880,222.800 306.000 C 222.103 305.120,221.443 304.400,221.333 304.400 C 221.223 304.400,221.703 305.120,222.400 306.000 M210.767 306.688 C 211.246 307.396,211.821 308.090,212.047 308.229 C 212.272 308.368,212.612 308.868,212.803 309.341 C 213.001 309.832,213.153 309.943,213.158 309.600 C 213.162 309.270,212.430 308.190,211.532 307.200 C 210.385 305.937,210.157 305.784,210.767 306.688 M187.600 308.000 C 188.521 309.100,189.364 310.000,189.474 310.000 C 189.584 310.000,188.921 309.100,188.000 308.000 C 187.079 306.900,186.236 306.000,186.126 306.000 C 186.016 306.000,186.679 306.900,187.600 308.000 M176.174 310.442 C 175.995 310.732,176.045 310.819,176.300 310.662 C 176.532 310.518,177.296 311.075,177.996 311.900 C 178.992 313.074,179.092 313.132,178.453 312.164 C 177.285 310.395,176.547 309.838,176.174 310.442 M226.830 311.623 C 227.617 312.600,230.555 316.325,233.360 319.900 C 236.164 323.475,238.557 326.400,238.678 326.400 C 238.798 326.400,238.278 325.635,237.523 324.700 C 236.768 323.765,233.936 320.164,231.231 316.697 C 228.527 313.230,226.108 310.270,225.857 310.119 C 225.606 309.968,226.044 310.645,226.830 311.623 M341.850 311.250 C 341.709 311.953,341.669 312.602,341.759 312.692 C 341.850 312.783,342.048 312.291,342.200 311.600 C 342.352 310.909,342.393 310.259,342.291 310.158 C 342.189 310.056,341.991 310.547,341.850 311.250 M357.822 311.422 C 357.672 312.225,357.628 312.962,357.726 313.060 C 357.824 313.157,358.027 312.581,358.178 311.778 C 358.328 310.975,358.372 310.238,358.274 310.140 C 358.176 310.043,357.973 310.619,357.822 311.422 M49.000 316.000 C 52.776 319.790,53.978 320.852,52.749 319.312 C 51.689 317.984,45.601 312.000,45.309 312.000 C 45.147 312.000,46.808 313.800,49.000 316.000 M121.867 314.500 C 122.311 314.995,124.516 317.605,126.767 320.300 C 129.018 322.995,130.970 325.200,131.105 325.200 C 131.239 325.200,130.898 324.705,130.346 324.100 C 129.794 323.495,127.590 320.885,125.448 318.300 C 123.306 315.715,121.442 313.600,121.307 313.600 C 121.171 313.600,121.424 314.005,121.867 314.500 M181.623 316.700 C 182.964 318.405,184.244 319.865,184.465 319.945 C 184.687 320.024,184.595 319.754,184.260 319.345 C 179.061 312.982,177.337 311.253,181.623 316.700 M356.829 315.829 C 356.554 317.057,356.406 318.139,356.500 318.233 C 356.594 318.328,356.897 317.400,357.171 316.171 C 357.446 314.943,357.594 313.861,357.500 313.767 C 357.406 313.672,357.103 314.600,356.829 315.829 M172.421 321.221 C 171.943 322.796,171.624 324.157,171.713 324.246 C 171.801 324.335,172.262 323.116,172.737 321.537 C 173.211 319.958,173.530 318.597,173.445 318.512 C 173.360 318.427,172.899 319.646,172.421 321.221 M56.400 323.400 C 57.146 324.170,57.937 324.800,58.157 324.800 C 58.377 324.800,57.946 324.170,57.200 323.400 C 56.454 322.630,55.663 322.000,55.443 322.000 C 55.223 322.000,55.654 322.630,56.400 323.400 M337.834 327.434 C 337.216 329.970,336.785 332.118,336.876 332.209 C 336.967 332.300,337.547 330.301,338.166 327.766 C 338.784 325.230,339.215 323.082,339.124 322.991 C 339.033 322.900,338.453 324.899,337.834 327.434 M132.736 327.517 C 133.691 328.661,134.681 329.725,134.936 329.880 C 135.191 330.036,134.619 329.227,133.664 328.083 C 132.709 326.939,131.719 325.875,131.464 325.720 C 131.209 325.564,131.781 326.373,132.736 327.517 M226.955 327.319 C 227.803 328.353,228.580 329.200,228.682 329.200 C 228.955 329.200,226.421 326.060,225.877 325.724 C 225.622 325.566,226.107 326.284,226.955 327.319 M63.800 330.800 C 66.212 333.220,68.266 335.200,68.363 335.200 C 68.577 335.200,67.602 334.148,63.321 329.761 C 61.517 327.912,59.900 326.400,59.728 326.400 C 59.555 326.400,61.388 328.380,63.800 330.800 M240.876 329.500 C 241.206 329.885,243.137 332.315,245.168 334.900 C 247.198 337.485,248.958 339.600,249.078 339.600 C 249.198 339.600,248.677 338.835,247.920 337.900 C 247.163 336.965,245.237 334.535,243.641 332.500 C 242.045 330.465,240.634 328.800,240.507 328.800 C 240.380 328.800,240.546 329.115,240.876 329.500 M136.774 332.300 C 137.737 333.455,138.602 334.400,138.696 334.400 C 138.968 334.400,136.504 331.382,135.726 330.762 C 135.339 330.453,135.810 331.145,136.774 332.300 M168.846 332.039 C 168.601 332.743,168.413 333.518,168.428 333.760 C 168.444 334.002,168.714 333.496,169.030 332.635 C 169.345 331.774,169.533 331.000,169.448 330.915 C 169.362 330.829,169.092 331.335,168.846 332.039 M167.680 335.880 C 167.088 337.809,167.375 338.095,168.000 336.200 C 168.264 335.401,168.402 334.669,168.307 334.574 C 168.212 334.478,167.930 335.066,167.680 335.880 M235.032 337.600 C 236.069 338.920,237.199 340.225,237.542 340.500 C 237.886 340.775,237.119 339.695,235.838 338.100 C 234.558 336.505,233.428 335.200,233.328 335.200 C 233.229 335.200,233.995 336.280,235.032 337.600 M71.428 338.400 C 74.075 341.117,74.400 341.404,74.400 341.016 C 74.400 340.693,69.332 335.600,69.010 335.600 C 68.840 335.600,69.928 336.860,71.428 338.400 M351.229 339.429 C 350.954 340.657,350.806 341.739,350.900 341.833 C 350.994 341.928,351.297 341.000,351.571 339.771 C 351.846 338.543,351.994 337.461,351.900 337.367 C 351.806 337.272,351.503 338.200,351.229 339.429 M141.200 337.725 C 141.200 337.794,141.785 338.379,142.500 339.025 L 143.800 340.200 142.625 338.900 C 141.530 337.688,141.200 337.416,141.200 337.725 M251.428 342.900 C 252.678 344.495,254.441 346.745,255.345 347.900 C 256.250 349.055,257.140 350.000,257.323 350.000 C 257.507 350.000,257.382 349.725,257.045 349.388 C 256.709 349.052,254.884 346.802,252.991 344.388 C 251.097 341.975,249.459 340.000,249.351 340.000 C 249.243 340.000,250.177 341.305,251.428 342.900 M144.077 341.100 C 147.276 344.829,150.720 349.114,150.906 349.600 C 151.064 350.009,151.147 350.034,151.168 349.678 C 151.199 349.180,144.116 340.400,143.684 340.400 C 143.570 340.400,143.746 340.715,144.077 341.100 M79.000 345.600 C 81.412 348.020,83.476 350.000,83.586 350.000 C 83.696 350.000,81.812 348.020,79.400 345.600 C 76.988 343.180,74.924 341.200,74.814 341.200 C 74.704 341.200,76.588 343.180,79.000 345.600 M333.800 343.600 C 333.648 344.291,333.607 344.941,333.709 345.042 C 333.811 345.144,334.009 344.653,334.150 343.950 C 334.291 343.247,334.331 342.598,334.241 342.508 C 334.150 342.417,333.952 342.909,333.800 343.600 M241.554 345.936 C 241.999 346.560,242.679 347.325,243.065 347.636 C 243.452 347.946,243.160 347.435,242.417 346.500 C 240.891 344.580,240.325 344.210,241.554 345.936 M332.723 347.788 C 332.388 348.992,332.246 349.895,332.407 349.795 C 332.749 349.584,333.710 345.976,333.484 345.751 C 333.400 345.667,333.058 346.584,332.723 347.788 M163.829 347.429 C 163.681 348.015,163.638 348.572,163.732 348.666 C 163.827 348.760,164.024 348.358,164.171 347.771 C 164.319 347.185,164.362 346.628,164.268 346.534 C 164.173 346.440,163.976 346.842,163.829 347.429 M101.300 350.300 C 110.045 350.360,124.355 350.360,133.100 350.300 C 141.845 350.240,134.690 350.191,117.200 350.191 C 99.710 350.191,92.555 350.240,101.300 350.300 M277.300 350.300 C 287.145 350.359,303.255 350.359,313.100 350.300 C 322.945 350.240,314.890 350.192,295.200 350.192 C 275.510 350.192,267.455 350.240,277.300 350.300 M247.583 353.500 C 248.326 354.435,249.006 355.200,249.094 355.200 C 249.377 355.200,247.663 352.949,246.935 352.364 C 246.548 352.054,246.840 352.565,247.583 353.500 M347.850 353.650 C 347.709 354.353,347.669 355.002,347.759 355.092 C 347.850 355.183,348.048 354.691,348.200 354.000 C 348.352 353.309,348.393 352.659,348.291 352.558 C 348.189 352.456,347.991 352.947,347.850 353.650 M251.071 357.983 C 251.912 359.074,252.746 359.974,252.924 359.983 C 253.102 359.992,252.489 359.100,251.561 358.000 C 249.392 355.427,249.092 355.417,251.071 357.983 M346.913 357.841 C 346.667 358.918,346.529 359.862,346.606 359.940 C 346.829 360.162,347.663 356.790,347.504 356.312 C 347.426 356.077,347.160 356.765,346.913 357.841 " stroke="none" fill="#8cb3db" fill-rule="evenodd"></path></g></svg>